<svg xmlns="http://www.w3.org/2000/svg" viewBox="0 0 2063 441" role="img" aria-label="EnergyPilot logo traced">
  <title>EnergyPilot logo traced</title>
  <path d="M 1671.00 410.00 L 1670.00 411.00 L 1670.00 415.00 L 1675.00 415.00 L 1676.00 414.00 L 1675.00 410.00 Z M 1660.00 387.00 L 1655.00 387.00 L 1647.00 407.00 L 1644.00 405.00 L 1644.00 403.00 L 1641.00 398.00 L 1641.00 396.00 L 1637.00 387.00 L 1632.00 387.00 L 1643.00 413.00 L 1643.00 418.00 L 1642.00 420.00 L 1639.00 423.00 L 1635.00 423.00 L 1634.00 424.00 L 1634.00 427.00 L 1641.00 427.00 L 1645.00 424.00 Z M 875.00 387.00 L 875.00 389.00 L 882.00 404.00 L 885.00 414.00 L 886.00 415.00 L 891.00 415.00 L 891.00 413.00 L 893.00 410.00 L 893.00 408.00 L 895.00 405.00 L 895.00 403.00 L 902.00 387.00 L 898.00 387.00 L 897.00 388.00 L 894.00 397.00 L 892.00 400.00 L 892.00 402.00 L 889.00 407.00 L 886.00 405.00 L 886.00 403.00 L 884.00 400.00 L 880.00 388.00 L 879.00 387.00 Z M 609.00 387.00 L 609.00 389.00 L 611.00 392.00 L 611.00 394.00 L 613.00 397.00 L 613.00 399.00 L 616.00 404.00 L 616.00 406.00 L 620.00 415.00 L 625.00 415.00 L 636.00 387.00 L 632.00 387.00 L 631.00 388.00 L 628.00 397.00 L 626.00 400.00 L 626.00 402.00 L 623.00 407.00 L 621.00 406.00 L 619.00 402.00 L 619.00 400.00 L 617.00 397.00 L 614.00 388.00 L 613.00 387.00 Z M 1587.00 386.00 L 1586.00 387.00 L 1586.00 415.00 L 1591.00 415.00 L 1591.00 387.00 L 1590.00 386.00 Z M 1546.00 387.00 L 1546.00 415.00 L 1550.00 415.00 L 1551.00 395.00 L 1557.00 390.00 L 1562.00 390.00 L 1566.00 393.00 L 1567.00 395.00 L 1567.00 415.00 L 1571.00 415.00 L 1571.00 409.00 L 1572.00 408.00 L 1571.00 403.00 L 1572.00 402.00 L 1572.00 397.00 L 1570.00 391.00 L 1566.00 387.00 L 1563.00 386.00 L 1557.00 386.00 L 1551.00 389.00 L 1550.00 387.00 Z M 1532.00 387.00 L 1530.00 386.00 L 1527.00 387.00 L 1527.00 406.00 L 1524.00 410.00 L 1520.00 412.00 L 1514.00 411.00 L 1511.00 407.00 L 1511.00 387.00 L 1506.00 387.00 L 1506.00 406.00 L 1507.00 407.00 L 1507.00 410.00 L 1512.00 415.00 L 1520.00 416.00 L 1523.00 415.00 L 1525.00 413.00 L 1526.00 413.00 L 1527.00 415.00 L 1532.00 415.00 Z M 1466.00 386.00 L 1462.00 386.00 L 1458.00 388.00 L 1456.00 387.00 L 1452.00 387.00 L 1451.00 388.00 L 1451.00 397.00 L 1452.00 398.00 L 1451.00 412.00 L 1452.00 415.00 L 1456.00 415.00 L 1456.00 396.00 L 1460.00 391.00 L 1462.00 390.00 L 1466.00 390.00 Z M 1422.00 386.00 L 1414.00 390.00 L 1410.00 397.00 L 1410.00 405.00 L 1413.00 411.00 L 1418.00 415.00 L 1421.00 416.00 L 1427.00 416.00 L 1432.00 414.00 L 1437.00 409.00 L 1439.00 404.00 L 1439.00 399.00 L 1437.00 393.00 L 1432.00 388.00 L 1427.00 386.00 Z M 1422.00 390.00 L 1429.00 391.00 L 1433.00 395.00 L 1434.00 398.00 L 1434.00 404.00 L 1433.00 407.00 L 1430.00 410.00 L 1426.00 412.00 L 1420.00 411.00 L 1415.00 405.00 L 1415.00 397.00 L 1416.00 395.00 Z M 1388.00 386.00 L 1382.00 386.00 L 1376.00 389.00 L 1375.00 387.00 L 1371.00 387.00 L 1371.00 413.00 L 1370.00 414.00 L 1370.00 417.00 L 1371.00 418.00 L 1371.00 424.00 L 1370.00 426.00 L 1371.00 427.00 L 1375.00 427.00 L 1375.00 414.00 L 1376.00 413.00 L 1383.00 416.00 L 1387.00 416.00 L 1392.00 414.00 L 1398.00 407.00 L 1399.00 404.00 L 1398.00 395.00 L 1392.00 388.00 Z M 1383.00 390.00 L 1387.00 390.00 L 1389.00 391.00 L 1394.00 397.00 L 1394.00 404.00 L 1393.00 407.00 L 1389.00 411.00 L 1386.00 412.00 L 1380.00 411.00 L 1375.00 405.00 L 1375.00 397.00 L 1376.00 395.00 L 1380.00 391.00 Z M 1351.00 388.00 L 1346.00 386.00 L 1340.00 386.00 L 1334.00 389.00 L 1333.00 387.00 L 1329.00 387.00 L 1329.00 427.00 L 1333.00 427.00 L 1333.00 414.00 L 1334.00 413.00 L 1338.00 415.00 L 1346.00 416.00 L 1352.00 413.00 L 1356.00 408.00 L 1357.00 405.00 L 1357.00 397.00 L 1356.00 394.00 Z M 1341.00 390.00 L 1345.00 390.00 L 1349.00 392.00 L 1352.00 396.00 L 1352.00 400.00 L 1353.00 401.00 L 1352.00 406.00 L 1345.00 412.00 L 1342.00 412.00 L 1337.00 410.00 L 1333.00 403.00 L 1333.00 399.00 L 1335.00 394.00 Z M 1300.00 386.00 L 1294.00 388.00 L 1290.00 392.00 L 1288.00 396.00 L 1288.00 406.00 L 1290.00 410.00 L 1294.00 414.00 L 1299.00 416.00 L 1304.00 416.00 L 1311.00 413.00 L 1313.00 411.00 L 1316.00 405.00 L 1316.00 398.00 L 1313.00 391.00 L 1308.00 387.00 Z M 1300.00 390.00 L 1304.00 390.00 L 1308.00 392.00 L 1310.00 394.00 L 1312.00 399.00 L 1311.00 406.00 L 1306.00 411.00 L 1303.00 412.00 L 1300.00 412.00 L 1296.00 410.00 L 1292.00 404.00 L 1292.00 398.00 L 1293.00 395.00 L 1297.00 391.00 Z M 1253.00 386.00 L 1249.00 387.00 L 1246.00 397.00 L 1241.00 407.00 L 1238.00 405.00 L 1238.00 403.00 L 1235.00 398.00 L 1235.00 396.00 L 1231.00 387.00 L 1226.00 387.00 L 1238.00 415.00 L 1236.00 420.00 L 1233.00 423.00 L 1229.00 423.00 L 1228.00 425.00 L 1229.00 427.00 L 1235.00 427.00 L 1239.00 424.00 L 1243.00 415.00 L 1243.00 413.00 L 1246.00 408.00 L 1249.00 398.00 L 1254.00 388.00 Z M 1213.00 387.00 L 1209.00 387.00 L 1209.00 388.00 L 1207.00 389.00 L 1205.00 387.00 L 1202.00 386.00 L 1197.00 386.00 L 1192.00 388.00 L 1188.00 392.00 L 1186.00 397.00 L 1186.00 405.00 L 1189.00 411.00 L 1191.00 413.00 L 1198.00 416.00 L 1201.00 416.00 L 1207.00 413.00 L 1209.00 414.00 L 1208.00 419.00 L 1204.00 423.00 L 1201.00 424.00 L 1196.00 423.00 L 1192.00 420.00 L 1189.00 420.00 L 1188.00 422.00 L 1192.00 426.00 L 1201.00 428.00 L 1202.00 427.00 L 1205.00 427.00 L 1211.00 423.00 L 1214.00 414.00 L 1213.00 412.00 Z M 1198.00 390.00 L 1202.00 390.00 L 1204.00 391.00 L 1209.00 397.00 L 1209.00 404.00 L 1208.00 407.00 L 1203.00 411.00 L 1196.00 411.00 L 1191.00 406.00 L 1191.00 396.00 L 1194.00 392.00 Z M 1175.00 386.00 L 1171.00 386.00 L 1167.00 388.00 L 1165.00 387.00 L 1160.00 387.00 L 1160.00 415.00 L 1165.00 415.00 L 1165.00 396.00 L 1169.00 391.00 L 1171.00 390.00 L 1175.00 390.00 Z M 1131.00 386.00 L 1126.00 388.00 L 1122.00 392.00 L 1120.00 396.00 L 1120.00 406.00 L 1121.00 409.00 L 1126.00 414.00 L 1131.00 416.00 L 1136.00 416.00 L 1141.00 414.00 L 1145.00 409.00 L 1144.00 408.00 L 1141.00 408.00 L 1140.00 410.00 L 1136.00 412.00 L 1132.00 412.00 L 1129.00 411.00 L 1125.00 407.00 L 1125.00 403.00 L 1126.00 402.00 L 1129.00 403.00 L 1146.00 403.00 L 1147.00 402.00 L 1147.00 397.00 L 1145.00 392.00 L 1141.00 388.00 L 1136.00 386.00 Z M 1125.00 395.00 L 1131.00 390.00 L 1136.00 390.00 L 1142.00 395.00 L 1142.00 397.00 L 1141.00 398.00 L 1126.00 398.00 Z M 1081.00 387.00 L 1081.00 415.00 L 1085.00 415.00 L 1085.00 397.00 L 1087.00 393.00 L 1092.00 390.00 L 1097.00 390.00 L 1101.00 393.00 L 1102.00 395.00 L 1102.00 415.00 L 1106.00 415.00 L 1106.00 394.00 L 1105.00 391.00 L 1102.00 388.00 L 1098.00 386.00 L 1092.00 386.00 L 1089.00 387.00 L 1087.00 389.00 L 1086.00 389.00 L 1085.00 387.00 Z M 1051.00 386.00 L 1045.00 389.00 L 1041.00 394.00 L 1040.00 397.00 L 1040.00 405.00 L 1043.00 411.00 L 1048.00 415.00 L 1051.00 416.00 L 1057.00 416.00 L 1062.00 414.00 L 1066.00 409.00 L 1062.00 408.00 L 1059.00 411.00 L 1052.00 412.00 L 1047.00 409.00 L 1045.00 404.00 L 1048.00 402.00 L 1066.00 403.00 L 1068.00 400.00 L 1067.00 399.00 L 1067.00 395.00 L 1063.00 389.00 L 1057.00 386.00 Z M 1045.00 396.00 L 1048.00 392.00 L 1052.00 390.00 L 1056.00 390.00 L 1062.00 395.00 L 1061.00 398.00 L 1046.00 398.00 Z M 1005.00 386.00 L 1003.00 386.00 L 1001.00 388.00 L 999.00 395.00 L 993.00 407.00 L 992.00 407.00 L 990.00 404.00 L 990.00 402.00 L 987.00 397.00 L 984.00 388.00 L 982.00 386.00 L 979.00 387.00 L 983.00 399.00 L 990.00 414.00 L 990.00 417.00 L 988.00 421.00 L 986.00 423.00 L 982.00 423.00 L 981.00 424.00 L 981.00 427.00 L 987.00 427.00 L 992.00 423.00 L 996.00 414.00 L 996.00 412.00 L 998.00 409.00 L 998.00 407.00 L 1000.00 404.00 L 1000.00 402.00 L 1003.00 397.00 L 1004.00 392.00 L 1006.00 389.00 Z M 967.00 386.00 L 963.00 386.00 L 959.00 389.00 L 958.00 389.00 L 957.00 387.00 L 953.00 387.00 L 953.00 415.00 L 957.00 415.00 L 957.00 397.00 L 960.00 392.00 L 964.00 390.00 L 968.00 390.00 L 968.00 387.00 Z M 923.00 386.00 L 920.00 387.00 L 915.00 391.00 L 912.00 399.00 L 912.00 404.00 L 916.00 412.00 L 924.00 416.00 L 929.00 416.00 L 934.00 414.00 L 938.00 409.00 L 937.00 408.00 L 934.00 408.00 L 931.00 411.00 L 925.00 412.00 L 922.00 411.00 L 918.00 407.00 L 917.00 403.00 L 918.00 402.00 L 939.00 403.00 L 939.00 395.00 L 937.00 391.00 L 932.00 387.00 L 929.00 386.00 Z M 917.00 396.00 L 920.00 392.00 L 924.00 390.00 L 928.00 390.00 L 934.00 394.00 L 934.00 397.00 L 933.00 398.00 L 918.00 398.00 Z M 849.00 386.00 L 844.00 388.00 L 839.00 393.00 L 837.00 399.00 L 837.00 403.00 L 839.00 409.00 L 844.00 414.00 L 849.00 416.00 L 854.00 416.00 L 859.00 414.00 L 863.00 409.00 L 862.00 408.00 L 859.00 408.00 L 856.00 411.00 L 851.00 412.00 L 846.00 410.00 L 843.00 407.00 L 843.00 404.00 L 844.00 403.00 L 863.00 403.00 L 865.00 402.00 L 865.00 398.00 L 862.00 391.00 L 859.00 388.00 L 854.00 386.00 Z M 843.00 395.00 L 849.00 390.00 L 854.00 390.00 L 859.00 394.00 L 860.00 397.00 L 859.00 398.00 L 844.00 398.00 Z M 786.00 386.00 L 782.00 388.00 L 777.00 393.00 L 775.00 398.00 L 775.00 404.00 L 777.00 409.00 L 782.00 414.00 L 787.00 416.00 L 792.00 416.00 L 797.00 414.00 L 801.00 409.00 L 800.00 408.00 L 797.00 408.00 L 792.00 412.00 L 788.00 412.00 L 785.00 411.00 L 781.00 407.00 L 780.00 404.00 L 781.00 403.00 L 802.00 403.00 L 803.00 402.00 L 803.00 397.00 L 800.00 391.00 L 795.00 387.00 L 792.00 386.00 Z M 781.00 395.00 L 783.00 392.00 L 787.00 390.00 L 791.00 390.00 L 794.00 391.00 L 797.00 394.00 L 798.00 397.00 L 797.00 398.00 L 782.00 398.00 Z M 713.00 388.00 L 710.00 392.00 L 711.00 394.00 L 713.00 394.00 L 716.00 391.00 L 723.00 390.00 L 728.00 394.00 L 728.00 397.00 L 727.00 398.00 L 717.00 398.00 L 712.00 400.00 L 708.00 405.00 L 709.00 412.00 L 711.00 414.00 L 716.00 416.00 L 724.00 415.00 L 727.00 412.00 L 729.00 413.00 L 729.00 415.00 L 733.00 415.00 L 733.00 411.00 L 732.00 410.00 L 732.00 393.00 L 731.00 391.00 L 727.00 387.00 L 724.00 386.00 L 718.00 386.00 Z M 712.00 408.00 L 712.00 406.00 L 715.00 403.00 L 718.00 402.00 L 727.00 402.00 L 728.00 403.00 L 727.00 408.00 L 721.00 412.00 L 717.00 412.00 Z M 678.00 386.00 L 673.00 388.00 L 668.00 394.00 L 667.00 397.00 L 667.00 405.00 L 668.00 408.00 L 672.00 413.00 L 678.00 416.00 L 683.00 416.00 L 689.00 413.00 L 690.00 414.00 L 690.00 418.00 L 685.00 423.00 L 682.00 424.00 L 676.00 423.00 L 673.00 420.00 L 670.00 420.00 L 669.00 422.00 L 675.00 427.00 L 686.00 427.00 L 690.00 425.00 L 694.00 419.00 L 694.00 387.00 L 690.00 387.00 L 690.00 388.00 L 688.00 389.00 L 686.00 387.00 L 683.00 386.00 Z M 679.00 390.00 L 683.00 390.00 L 685.00 391.00 L 690.00 396.00 L 690.00 405.00 L 686.00 410.00 L 682.00 412.00 L 675.00 410.00 L 673.00 408.00 L 671.00 403.00 L 671.00 398.00 L 673.00 394.00 Z M 650.00 386.00 L 648.00 388.00 L 648.00 415.00 L 653.00 415.00 L 653.00 387.00 Z M 577.00 388.00 L 573.00 392.00 L 574.00 394.00 L 577.00 394.00 L 582.00 390.00 L 587.00 390.00 L 591.00 393.00 L 591.00 397.00 L 590.00 398.00 L 581.00 398.00 L 574.00 401.00 L 571.00 407.00 L 572.00 411.00 L 576.00 415.00 L 579.00 416.00 L 584.00 416.00 L 591.00 413.00 L 592.00 415.00 L 597.00 415.00 L 597.00 412.00 L 596.00 411.00 L 596.00 394.00 L 594.00 390.00 L 592.00 388.00 L 587.00 386.00 L 582.00 386.00 Z M 576.00 408.00 L 576.00 406.00 L 581.00 402.00 L 590.00 402.00 L 591.00 403.00 L 591.00 407.00 L 587.00 411.00 L 581.00 412.00 Z M 1608.00 378.00 L 1608.00 386.00 L 1607.00 387.00 L 1603.00 387.00 L 1603.00 390.00 L 1607.00 390.00 L 1608.00 391.00 L 1608.00 410.00 L 1612.00 415.00 L 1618.00 416.00 L 1620.00 415.00 L 1620.00 412.00 L 1619.00 411.00 L 1615.00 411.00 L 1612.00 407.00 L 1612.00 392.00 L 1613.00 391.00 L 1619.00 391.00 L 1620.00 390.00 L 1620.00 387.00 L 1614.00 387.00 L 1612.00 385.00 L 1612.00 378.00 Z M 1481.00 378.00 L 1481.00 385.00 L 1476.00 387.00 L 1477.00 390.00 L 1480.00 390.00 L 1481.00 391.00 L 1481.00 410.00 L 1485.00 415.00 L 1492.00 416.00 L 1494.00 415.00 L 1493.00 411.00 L 1487.00 411.00 L 1485.00 408.00 L 1485.00 391.00 L 1486.00 390.00 L 1490.00 390.00 L 1492.00 391.00 L 1493.00 390.00 L 1493.00 387.00 L 1492.00 386.00 L 1486.00 386.00 L 1485.00 385.00 L 1485.00 378.00 Z M 751.00 378.00 L 751.00 386.00 L 750.00 387.00 L 746.00 387.00 L 746.00 390.00 L 751.00 392.00 L 751.00 411.00 L 753.00 414.00 L 757.00 416.00 L 762.00 416.00 L 763.00 415.00 L 763.00 412.00 L 762.00 411.00 L 757.00 411.00 L 755.00 409.00 L 755.00 392.00 L 756.00 391.00 L 762.00 391.00 L 763.00 390.00 L 763.00 387.00 L 756.00 387.00 L 755.00 386.00 L 755.00 378.00 Z M 525.00 376.00 L 525.00 415.00 L 529.00 415.00 L 529.00 388.00 L 530.00 387.00 L 534.00 390.00 L 545.00 406.00 L 549.00 410.00 L 552.00 415.00 L 557.00 415.00 L 557.00 377.00 L 556.00 376.00 L 553.00 376.00 L 552.00 377.00 L 552.00 403.00 L 550.00 404.00 L 532.00 380.00 L 528.00 376.00 Z M 1587.00 375.00 L 1586.00 376.00 L 1586.00 380.00 L 1587.00 381.00 L 1590.00 381.00 L 1591.00 380.00 L 1591.00 376.00 L 1590.00 375.00 Z M 649.00 375.00 L 648.00 376.00 L 648.00 379.00 L 650.00 381.00 L 652.00 381.00 L 654.00 377.00 L 652.00 375.00 Z M 951.00 310.00 L 951.00 313.00 L 1174.00 313.00 L 1175.00 312.00 L 1175.00 310.00 Z M 1830.00 207.00 L 1830.00 243.00 L 1834.00 243.00 L 1834.00 229.00 L 1835.00 228.00 L 1842.00 228.00 L 1845.00 231.00 L 1852.00 243.00 L 1857.00 243.00 L 1857.00 241.00 L 1849.00 230.00 L 1849.00 228.00 L 1856.00 222.00 L 1857.00 219.00 L 1857.00 215.00 L 1856.00 213.00 L 1849.00 207.00 Z M 1834.00 212.00 L 1835.00 211.00 L 1848.00 211.00 L 1851.00 214.00 L 1852.00 219.00 L 1851.00 221.00 L 1847.00 224.00 L 1835.00 224.00 L 1834.00 223.00 Z M 1667.00 207.00 L 1667.00 210.00 L 1668.00 211.00 L 1678.00 211.00 L 1679.00 212.00 L 1679.00 243.00 L 1683.00 243.00 L 1683.00 212.00 L 1684.00 211.00 L 1695.00 211.00 L 1695.00 207.00 Z M 1566.00 207.00 L 1566.00 243.00 L 1589.00 243.00 L 1589.00 240.00 L 1588.00 239.00 L 1571.00 239.00 L 1570.00 238.00 L 1570.00 207.00 Z M 1428.00 207.00 L 1428.00 243.00 L 1452.00 243.00 L 1453.00 242.00 L 1452.00 239.00 L 1434.00 239.00 L 1433.00 238.00 L 1432.00 228.00 L 1434.00 226.00 L 1450.00 226.00 L 1450.00 223.00 L 1449.00 222.00 L 1433.00 222.00 L 1432.00 221.00 L 1433.00 219.00 L 1432.00 212.00 L 1433.00 211.00 L 1452.00 211.00 L 1453.00 208.00 L 1452.00 207.00 Z M 1167.00 207.00 L 1166.00 208.00 L 1166.00 242.00 L 1167.00 243.00 L 1171.00 243.00 L 1171.00 207.00 Z M 1072.00 207.00 L 1072.00 243.00 L 1094.00 243.00 L 1094.00 239.00 L 1077.00 239.00 L 1076.00 238.00 L 1076.00 207.00 Z M 967.00 207.00 L 967.00 211.00 L 977.00 211.00 L 978.00 212.00 L 978.00 243.00 L 983.00 243.00 L 983.00 212.00 L 984.00 211.00 L 994.00 211.00 L 995.00 210.00 L 995.00 207.00 Z M 911.00 207.00 L 911.00 243.00 L 915.00 243.00 L 915.00 218.00 L 916.00 217.00 L 920.00 220.00 L 934.00 240.00 L 937.00 243.00 L 941.00 243.00 L 941.00 207.00 L 937.00 207.00 L 937.00 232.00 L 936.00 233.00 L 932.00 230.00 L 918.00 210.00 L 915.00 207.00 Z M 694.00 207.00 L 694.00 243.00 L 716.00 243.00 L 716.00 239.00 L 699.00 239.00 L 698.00 238.00 L 698.00 207.00 Z M 649.00 207.00 L 645.00 216.00 L 645.00 218.00 L 643.00 221.00 L 643.00 223.00 L 638.00 233.00 L 638.00 235.00 L 636.00 238.00 L 635.00 243.00 L 639.00 243.00 L 640.00 242.00 L 642.00 235.00 L 644.00 233.00 L 659.00 233.00 L 661.00 235.00 L 663.00 242.00 L 664.00 243.00 L 668.00 243.00 L 668.00 241.00 L 666.00 238.00 L 661.00 223.00 L 654.00 207.00 Z M 651.00 214.00 L 652.00 214.00 L 654.00 217.00 L 655.00 222.00 L 658.00 228.00 L 657.00 230.00 L 646.00 230.00 L 645.00 229.00 Z M 497.00 207.00 L 500.00 213.00 L 510.00 227.00 L 510.00 243.00 L 514.00 243.00 L 515.00 242.00 L 514.00 240.00 L 515.00 237.00 L 515.00 227.00 L 524.00 214.00 L 525.00 211.00 L 527.00 209.00 L 527.00 207.00 L 523.00 207.00 L 513.00 222.00 L 509.00 219.00 L 502.00 207.00 Z M 387.00 207.00 L 386.00 210.00 L 386.00 213.00 L 387.00 214.00 L 386.00 216.00 L 386.00 242.00 L 387.00 243.00 L 391.00 243.00 L 391.00 229.00 L 392.00 228.00 L 399.00 228.00 L 409.00 243.00 L 414.00 243.00 L 413.00 240.00 L 405.00 229.00 L 405.00 228.00 L 408.00 227.00 L 413.00 221.00 L 413.00 214.00 L 412.00 212.00 L 406.00 207.00 Z M 391.00 212.00 L 392.00 211.00 L 404.00 211.00 L 408.00 214.00 L 409.00 218.00 L 408.00 220.00 L 403.00 224.00 L 392.00 224.00 L 391.00 223.00 Z M 335.00 207.00 L 335.00 243.00 L 359.00 243.00 L 360.00 242.00 L 359.00 239.00 L 340.00 239.00 L 339.00 238.00 L 339.00 228.00 L 341.00 226.00 L 357.00 226.00 L 357.00 222.00 L 340.00 222.00 L 339.00 221.00 L 339.00 212.00 L 340.00 211.00 L 359.00 211.00 L 360.00 210.00 L 360.00 207.00 Z M 1920.00 207.00 L 1919.00 206.00 L 1915.00 207.00 L 1902.00 234.00 L 1900.00 233.00 L 1889.00 208.00 L 1888.00 207.00 L 1883.00 207.00 L 1883.00 243.00 L 1887.00 243.00 L 1888.00 242.00 L 1888.00 223.00 L 1889.00 222.00 L 1891.00 223.00 L 1900.00 243.00 L 1903.00 243.00 L 1907.00 235.00 L 1907.00 233.00 L 1914.00 220.00 L 1916.00 221.00 L 1916.00 243.00 L 1920.00 243.00 Z M 1784.00 206.00 L 1776.00 209.00 L 1771.00 214.00 L 1768.00 221.00 L 1768.00 229.00 L 1770.00 234.00 L 1775.00 240.00 L 1782.00 243.00 L 1791.00 243.00 L 1797.00 240.00 L 1802.00 235.00 L 1804.00 231.00 L 1805.00 223.00 L 1804.00 222.00 L 1804.00 219.00 L 1799.00 211.00 L 1792.00 207.00 Z M 1782.00 211.00 L 1791.00 211.00 L 1793.00 212.00 L 1798.00 217.00 L 1800.00 222.00 L 1800.00 228.00 L 1798.00 233.00 L 1794.00 237.00 L 1790.00 239.00 L 1783.00 239.00 L 1780.00 238.00 L 1773.00 230.00 L 1773.00 227.00 L 1772.00 226.00 L 1773.00 220.00 L 1775.00 216.00 L 1778.00 213.00 Z M 1744.00 207.00 L 1730.00 207.00 L 1729.00 206.00 L 1721.00 207.00 L 1721.00 242.00 L 1722.00 243.00 L 1726.00 243.00 L 1726.00 228.00 L 1727.00 227.00 L 1742.00 227.00 L 1743.00 226.00 L 1743.00 223.00 L 1727.00 223.00 L 1726.00 222.00 L 1726.00 212.00 L 1727.00 211.00 L 1744.00 211.00 Z M 1628.00 206.00 L 1626.00 208.00 L 1626.00 210.00 L 1623.00 215.00 L 1618.00 230.00 L 1614.00 238.00 L 1613.00 243.00 L 1617.00 243.00 L 1618.00 242.00 L 1620.00 235.00 L 1622.00 233.00 L 1637.00 233.00 L 1641.00 243.00 L 1646.00 243.00 L 1646.00 241.00 L 1644.00 238.00 L 1644.00 236.00 L 1634.00 213.00 L 1633.00 208.00 L 1631.00 206.00 Z M 1629.00 214.00 L 1631.00 215.00 L 1633.00 223.00 L 1635.00 226.00 L 1634.00 229.00 L 1625.00 229.00 L 1624.00 228.00 L 1626.00 220.00 Z M 1532.00 207.00 L 1518.00 207.00 L 1517.00 206.00 L 1514.00 206.00 L 1514.00 212.00 L 1513.00 213.00 L 1513.00 242.00 L 1514.00 243.00 L 1518.00 243.00 L 1518.00 230.00 L 1519.00 229.00 L 1530.00 229.00 L 1535.00 227.00 L 1539.00 223.00 L 1540.00 215.00 L 1538.00 211.00 Z M 1518.00 212.00 L 1519.00 211.00 L 1531.00 211.00 L 1535.00 214.00 L 1536.00 217.00 L 1535.00 221.00 L 1532.00 224.00 L 1529.00 225.00 L 1519.00 225.00 L 1518.00 224.00 Z M 1384.00 206.00 L 1376.00 209.00 L 1373.00 211.00 L 1368.00 219.00 L 1368.00 230.00 L 1370.00 235.00 L 1376.00 241.00 L 1381.00 243.00 L 1391.00 243.00 L 1397.00 240.00 L 1400.00 237.00 L 1401.00 234.00 L 1397.00 233.00 L 1395.00 236.00 L 1390.00 239.00 L 1382.00 239.00 L 1378.00 237.00 L 1374.00 233.00 L 1372.00 227.00 L 1372.00 222.00 L 1374.00 217.00 L 1381.00 211.00 L 1391.00 211.00 L 1394.00 213.00 L 1397.00 217.00 L 1401.00 215.00 L 1396.00 209.00 L 1392.00 207.00 Z M 1339.00 206.00 L 1336.00 207.00 L 1336.00 231.00 L 1335.00 232.00 L 1330.00 228.00 L 1315.00 207.00 L 1310.00 207.00 L 1310.00 242.00 L 1311.00 243.00 L 1314.00 243.00 L 1315.00 242.00 L 1315.00 219.00 L 1317.00 218.00 L 1324.00 226.00 L 1336.00 243.00 L 1340.00 243.00 L 1340.00 207.00 Z M 1282.00 206.00 L 1277.00 206.00 L 1276.00 207.00 L 1259.00 207.00 L 1259.00 243.00 L 1283.00 243.00 L 1283.00 239.00 L 1265.00 239.00 L 1264.00 238.00 L 1264.00 227.00 L 1265.00 226.00 L 1281.00 226.00 L 1281.00 222.00 L 1265.00 222.00 L 1264.00 221.00 L 1264.00 212.00 L 1265.00 211.00 L 1283.00 211.00 L 1283.00 207.00 Z M 1213.00 206.00 L 1204.00 210.00 L 1200.00 214.00 L 1197.00 222.00 L 1197.00 228.00 L 1198.00 229.00 L 1198.00 232.00 L 1201.00 237.00 L 1206.00 241.00 L 1211.00 243.00 L 1220.00 243.00 L 1225.00 241.00 L 1230.00 237.00 L 1232.00 233.00 L 1232.00 224.00 L 1217.00 224.00 L 1217.00 227.00 L 1218.00 228.00 L 1227.00 228.00 L 1228.00 230.00 L 1227.00 233.00 L 1222.00 238.00 L 1219.00 239.00 L 1212.00 239.00 L 1208.00 237.00 L 1203.00 231.00 L 1202.00 228.00 L 1202.00 221.00 L 1203.00 218.00 L 1211.00 211.00 L 1220.00 211.00 L 1224.00 213.00 L 1226.00 216.00 L 1229.00 216.00 L 1231.00 215.00 L 1231.00 214.00 L 1226.00 209.00 L 1222.00 207.00 Z M 1120.00 206.00 L 1119.00 207.00 L 1119.00 243.00 L 1142.00 243.00 L 1142.00 239.00 L 1125.00 239.00 L 1124.00 238.00 L 1124.00 229.00 L 1123.00 228.00 L 1123.00 207.00 Z M 1045.00 207.00 L 1043.00 206.00 L 1039.00 206.00 L 1038.00 207.00 L 1020.00 207.00 L 1020.00 243.00 L 1045.00 243.00 L 1045.00 239.00 L 1026.00 239.00 L 1025.00 238.00 L 1025.00 227.00 L 1026.00 226.00 L 1043.00 226.00 L 1043.00 223.00 L 1042.00 222.00 L 1026.00 222.00 L 1025.00 221.00 L 1025.00 212.00 L 1026.00 211.00 L 1044.00 211.00 L 1045.00 210.00 Z M 879.00 206.00 L 878.00 207.00 L 878.00 243.00 L 882.00 243.00 L 883.00 242.00 L 883.00 207.00 Z M 803.00 206.00 L 795.00 210.00 L 793.00 213.00 L 793.00 219.00 L 794.00 221.00 L 799.00 225.00 L 811.00 228.00 L 814.00 232.00 L 813.00 236.00 L 809.00 239.00 L 802.00 239.00 L 798.00 237.00 L 796.00 234.00 L 793.00 234.00 L 792.00 237.00 L 798.00 242.00 L 801.00 243.00 L 810.00 243.00 L 814.00 241.00 L 817.00 238.00 L 818.00 236.00 L 818.00 229.00 L 814.00 225.00 L 810.00 223.00 L 807.00 223.00 L 801.00 221.00 L 797.00 217.00 L 797.00 215.00 L 799.00 212.00 L 804.00 210.00 L 811.00 212.00 L 813.00 215.00 L 816.00 215.00 L 817.00 212.00 L 811.00 207.00 Z M 743.00 206.00 L 742.00 207.00 L 742.00 243.00 L 766.00 243.00 L 766.00 239.00 L 747.00 239.00 L 746.00 238.00 L 746.00 228.00 L 748.00 226.00 L 764.00 226.00 L 764.00 222.00 L 747.00 222.00 L 746.00 221.00 L 746.00 212.00 L 747.00 211.00 L 765.00 211.00 L 766.00 210.00 L 766.00 207.00 L 748.00 207.00 L 747.00 206.00 Z M 597.00 206.00 L 591.00 208.00 L 588.00 211.00 L 587.00 213.00 L 587.00 219.00 L 591.00 224.00 L 605.00 228.00 L 607.00 230.00 L 607.00 235.00 L 606.00 237.00 L 603.00 239.00 L 595.00 239.00 L 593.00 238.00 L 590.00 234.00 L 587.00 234.00 L 586.00 237.00 L 590.00 241.00 L 594.00 243.00 L 603.00 243.00 L 608.00 241.00 L 611.00 238.00 L 612.00 236.00 L 612.00 229.00 L 608.00 225.00 L 604.00 223.00 L 597.00 222.00 L 593.00 220.00 L 591.00 217.00 L 591.00 215.00 L 593.00 212.00 L 598.00 210.00 L 603.00 211.00 L 607.00 215.00 L 609.00 215.00 L 611.00 214.00 L 611.00 213.00 L 608.00 209.00 L 601.00 206.00 Z M 455.00 206.00 L 447.00 209.00 L 442.00 214.00 L 439.00 220.00 L 439.00 230.00 L 442.00 236.00 L 449.00 242.00 L 452.00 243.00 L 462.00 243.00 L 467.00 241.00 L 472.00 236.00 L 474.00 232.00 L 474.00 224.00 L 459.00 224.00 L 459.00 228.00 L 468.00 228.00 L 469.00 229.00 L 468.00 234.00 L 465.00 237.00 L 461.00 239.00 L 454.00 239.00 L 448.00 236.00 L 446.00 234.00 L 443.00 226.00 L 443.00 223.00 L 445.00 217.00 L 449.00 213.00 L 453.00 211.00 L 462.00 211.00 L 468.00 216.00 L 472.00 215.00 L 467.00 209.00 L 460.00 206.00 Z M 305.00 206.00 L 302.00 207.00 L 302.00 232.00 L 301.00 233.00 L 299.00 232.00 L 281.00 207.00 L 276.00 207.00 L 276.00 243.00 L 280.00 243.00 L 281.00 242.00 L 281.00 219.00 L 282.00 218.00 L 286.00 221.00 L 302.00 243.00 L 306.00 243.00 L 306.00 207.00 Z M 224.00 207.00 L 224.00 243.00 L 248.00 243.00 L 249.00 242.00 L 248.00 239.00 L 230.00 239.00 L 229.00 238.00 L 229.00 227.00 L 230.00 226.00 L 246.00 226.00 L 246.00 222.00 L 230.00 222.00 L 229.00 221.00 L 229.00 212.00 L 230.00 211.00 L 248.00 211.00 L 248.00 207.00 L 237.00 207.00 L 236.00 206.00 Z M 411.00 123.00 L 411.00 127.00 L 412.00 129.00 L 415.00 132.00 L 418.00 133.00 L 501.00 133.00 L 502.00 132.00 L 513.00 132.00 L 517.00 127.00 L 517.00 123.00 L 516.00 121.00 L 513.00 118.00 L 510.00 117.00 L 418.00 117.00 L 415.00 118.00 Z M 12.00 122.00 L 12.00 128.00 L 16.00 132.00 L 36.00 132.00 L 37.00 133.00 L 109.00 133.00 L 110.00 132.00 L 114.00 132.00 L 116.00 131.00 L 119.00 127.00 L 119.00 123.00 L 118.00 121.00 L 115.00 118.00 L 112.00 117.00 L 18.00 117.00 L 14.00 119.00 Z M 879.00 71.00 L 878.00 76.00 L 880.00 80.00 L 883.00 82.00 L 920.00 82.00 L 921.00 83.00 L 921.00 104.00 L 922.00 106.00 L 925.00 109.00 L 928.00 110.00 L 933.00 109.00 L 936.00 106.00 L 936.00 91.00 L 937.00 90.00 L 937.00 84.00 L 936.00 83.00 L 936.00 72.00 L 934.00 69.00 L 930.00 67.00 L 885.00 67.00 L 882.00 68.00 Z M 411.00 71.00 L 411.00 74.00 L 413.00 78.00 L 417.00 80.00 L 512.00 80.00 L 516.00 77.00 L 517.00 74.00 L 517.00 70.00 L 515.00 67.00 L 511.00 65.00 L 417.00 65.00 L 415.00 66.00 Z M 12.00 70.00 L 12.00 75.00 L 13.00 77.00 L 17.00 80.00 L 113.00 80.00 L 115.00 79.00 L 119.00 74.00 L 118.00 69.00 L 113.00 65.00 L 18.00 65.00 L 14.00 67.00 Z M 819.00 55.00 L 816.00 63.00 L 816.00 67.00 L 815.00 68.00 L 816.00 87.00 L 819.00 96.00 L 826.00 109.00 L 842.00 124.00 L 849.00 128.00 L 851.00 128.00 L 860.00 132.00 L 868.00 133.00 L 869.00 134.00 L 880.00 134.00 L 882.00 135.00 L 883.00 134.00 L 894.00 134.00 L 895.00 133.00 L 903.00 132.00 L 918.00 126.00 L 924.00 121.00 L 920.00 115.00 L 915.00 111.00 L 913.00 111.00 L 906.00 115.00 L 897.00 118.00 L 893.00 118.00 L 892.00 119.00 L 871.00 119.00 L 870.00 118.00 L 866.00 118.00 L 860.00 116.00 L 850.00 111.00 L 841.00 103.00 L 833.00 90.00 L 831.00 84.00 L 831.00 62.00 L 829.00 60.00 Z M 1943.00 13.00 L 1940.00 15.00 L 1938.00 20.00 L 1939.00 21.00 L 1939.00 24.00 L 1944.00 28.00 L 1985.00 28.00 L 1986.00 29.00 L 1986.00 127.00 L 1988.00 131.00 L 1991.00 133.00 L 1996.00 133.00 L 2001.00 129.00 L 2001.00 34.00 L 2002.00 33.00 L 2002.00 29.00 L 2003.00 28.00 L 2044.00 28.00 L 2048.00 26.00 L 2050.00 23.00 L 2050.00 18.00 L 2046.00 13.00 Z M 1568.00 14.00 L 1565.00 18.00 L 1565.00 129.00 L 1570.00 133.00 L 1652.00 133.00 L 1655.00 132.00 L 1659.00 127.00 L 1659.00 123.00 L 1658.00 121.00 L 1654.00 118.00 L 1581.00 118.00 L 1580.00 117.00 L 1580.00 18.00 L 1579.00 16.00 L 1575.00 13.00 L 1570.00 13.00 Z M 1450.00 13.00 L 1446.00 17.00 L 1445.00 20.00 L 1445.00 123.00 L 1446.00 124.00 L 1446.00 129.00 L 1447.00 131.00 L 1450.00 133.00 L 1456.00 133.00 L 1459.00 131.00 L 1461.00 127.00 L 1461.00 19.00 L 1456.00 13.00 Z M 1342.00 19.00 L 1339.00 18.00 L 1337.00 16.00 L 1328.00 13.00 L 1253.00 13.00 L 1248.00 17.00 L 1247.00 20.00 L 1248.00 24.00 L 1251.00 27.00 L 1254.00 28.00 L 1327.00 28.00 L 1333.00 31.00 L 1338.00 36.00 L 1340.00 39.00 L 1341.00 45.00 L 1342.00 46.00 L 1342.00 52.00 L 1339.00 60.00 L 1334.00 66.00 L 1326.00 70.00 L 1255.00 70.00 L 1250.00 72.00 L 1248.00 75.00 L 1248.00 129.00 L 1250.00 132.00 L 1252.00 133.00 L 1258.00 133.00 L 1261.00 131.00 L 1263.00 127.00 L 1263.00 86.00 L 1264.00 85.00 L 1327.00 85.00 L 1340.00 80.00 L 1348.00 73.00 L 1355.00 61.00 L 1356.00 53.00 L 1357.00 52.00 L 1357.00 46.00 L 1356.00 45.00 L 1356.00 40.00 L 1352.00 30.00 Z M 1037.00 13.00 L 1033.00 15.00 L 1031.00 18.00 L 1031.00 23.00 L 1032.00 25.00 L 1054.00 50.00 L 1057.00 55.00 L 1081.00 83.00 L 1081.00 129.00 L 1082.00 131.00 L 1085.00 133.00 L 1091.00 133.00 L 1093.00 132.00 L 1095.00 129.00 L 1095.00 83.00 L 1147.00 23.00 L 1147.00 18.00 L 1146.00 16.00 L 1142.00 13.00 L 1137.00 13.00 L 1135.00 14.00 L 1092.00 63.00 L 1092.00 64.00 L 1088.00 67.00 L 1072.00 49.00 L 1047.00 18.00 L 1043.00 14.00 L 1041.00 13.00 Z M 615.00 14.00 L 612.00 18.00 L 612.00 23.00 L 614.00 26.00 L 618.00 28.00 L 693.00 28.00 L 700.00 31.00 L 706.00 37.00 L 709.00 44.00 L 709.00 54.00 L 707.00 59.00 L 699.00 67.00 L 692.00 70.00 L 619.00 70.00 L 616.00 71.00 L 612.00 76.00 L 612.00 128.00 L 613.00 130.00 L 617.00 133.00 L 623.00 133.00 L 627.00 129.00 L 627.00 86.00 L 628.00 85.00 L 676.00 85.00 L 683.00 93.00 L 708.00 127.00 L 714.00 133.00 L 720.00 133.00 L 722.00 132.00 L 725.00 128.00 L 725.00 124.00 L 724.00 122.00 L 720.00 118.00 L 696.00 86.00 L 697.00 84.00 L 707.00 80.00 L 717.00 71.00 L 723.00 60.00 L 723.00 57.00 L 724.00 56.00 L 724.00 42.00 L 723.00 41.00 L 722.00 35.00 L 718.00 28.00 L 709.00 19.00 L 699.00 14.00 L 696.00 14.00 L 695.00 13.00 L 617.00 13.00 Z M 411.00 18.00 L 411.00 22.00 L 413.00 26.00 L 417.00 28.00 L 511.00 28.00 L 515.00 26.00 L 517.00 22.00 L 517.00 18.00 L 516.00 16.00 L 512.00 13.00 L 416.00 13.00 L 414.00 14.00 Z M 209.00 14.00 L 206.00 17.00 L 206.00 42.00 L 205.00 43.00 L 205.00 46.00 L 206.00 47.00 L 206.00 129.00 L 211.00 133.00 L 216.00 133.00 L 218.00 132.00 L 221.00 128.00 L 221.00 44.00 L 223.00 43.00 L 268.00 91.00 L 268.00 92.00 L 289.00 114.00 L 299.00 126.00 L 305.00 132.00 L 307.00 133.00 L 313.00 133.00 L 317.00 129.00 L 317.00 17.00 L 313.00 13.00 L 307.00 13.00 L 304.00 15.00 L 302.00 19.00 L 302.00 102.00 L 300.00 103.00 L 218.00 14.00 L 216.00 13.00 L 211.00 13.00 Z M 12.00 18.00 L 12.00 23.00 L 13.00 25.00 L 18.00 28.00 L 113.00 28.00 L 119.00 23.00 L 119.00 18.00 L 118.00 16.00 L 114.00 13.00 L 17.00 13.00 L 15.00 14.00 Z M 1779.00 14.00 L 1770.00 17.00 L 1758.00 24.00 L 1750.00 31.00 L 1740.00 45.00 L 1735.00 58.00 L 1734.00 70.00 L 1733.00 71.00 L 1734.00 84.00 L 1735.00 85.00 L 1735.00 89.00 L 1737.00 95.00 L 1747.00 112.00 L 1754.00 119.00 L 1765.00 127.00 L 1776.00 132.00 L 1779.00 132.00 L 1784.00 134.00 L 1789.00 134.00 L 1790.00 135.00 L 1807.00 135.00 L 1808.00 134.00 L 1813.00 134.00 L 1814.00 133.00 L 1817.00 133.00 L 1826.00 130.00 L 1839.00 122.00 L 1851.00 110.00 L 1859.00 95.00 L 1861.00 85.00 L 1862.00 84.00 L 1862.00 63.00 L 1861.00 62.00 L 1861.00 58.00 L 1858.00 49.00 L 1851.00 37.00 L 1844.00 29.00 L 1834.00 21.00 L 1824.00 16.00 L 1818.00 14.00 L 1815.00 14.00 L 1814.00 13.00 L 1810.00 13.00 L 1809.00 12.00 L 1788.00 12.00 L 1787.00 13.00 Z M 1788.00 27.00 L 1797.00 27.00 L 1798.00 26.00 L 1800.00 27.00 L 1809.00 27.00 L 1821.00 31.00 L 1829.00 36.00 L 1838.00 45.00 L 1842.00 51.00 L 1846.00 61.00 L 1846.00 65.00 L 1847.00 66.00 L 1847.00 81.00 L 1846.00 82.00 L 1846.00 85.00 L 1844.00 91.00 L 1841.00 97.00 L 1829.00 110.00 L 1825.00 113.00 L 1813.00 118.00 L 1804.00 119.00 L 1803.00 120.00 L 1793.00 120.00 L 1792.00 119.00 L 1787.00 119.00 L 1786.00 118.00 L 1783.00 118.00 L 1777.00 116.00 L 1768.00 111.00 L 1757.00 100.00 L 1753.00 94.00 L 1753.00 92.00 L 1750.00 87.00 L 1749.00 79.00 L 1748.00 78.00 L 1748.00 69.00 L 1749.00 68.00 L 1750.00 60.00 L 1754.00 51.00 L 1759.00 44.00 L 1766.00 37.00 L 1778.00 30.00 L 1784.00 28.00 L 1787.00 28.00 Z M 829.00 38.00 L 835.00 42.00 L 841.00 44.00 L 852.00 34.00 L 858.00 31.00 L 867.00 28.00 L 872.00 28.00 L 873.00 27.00 L 897.00 27.00 L 898.00 28.00 L 904.00 28.00 L 909.00 30.00 L 913.00 30.00 L 922.00 33.00 L 925.00 32.00 L 929.00 28.00 L 929.00 23.00 L 926.00 19.00 L 922.00 17.00 L 919.00 17.00 L 910.00 14.00 L 905.00 14.00 L 904.00 13.00 L 895.00 13.00 L 894.00 12.00 L 876.00 12.00 L 875.00 13.00 L 868.00 13.00 L 867.00 14.00 L 863.00 14.00 L 859.00 16.00 L 856.00 16.00 L 842.00 23.00 L 832.00 31.00 L 829.00 35.00 Z" fill="#000000" fill-rule="evenodd"/>
</svg>