<svg xmlns="http://www.w3.org/2000/svg" viewBox="0 0 1180 210" role="img" aria-label="EnergyPilot horizontal compact v3">
  <title>EnergyPilot horizontal compact v3</title>
  <g transform="translate(34 39) scale(0.2578125)">
    <g fill="none" stroke="#000000" stroke-width="34" stroke-linecap="round" stroke-linejoin="round">
    <path d="M72 132 H210"/>
    <path d="M72 256 H184"/>
    <path d="M72 380 H210"/>
    <path d="M292 132 V380"/>
    <path d="M292 132 H376 Q446 132 446 220 Q446 308 376 308 H292"/>
  </g>
  </g>
  <path d="M 416.81 128.04 L 416.81 129.93 L 417.29 130.40 L 417.29 130.87 L 418.70 132.29 L 419.64 132.29 L 420.11 132.76 L 459.24 132.76 L 459.71 132.29 L 464.90 132.29 L 466.31 130.87 L 466.31 130.40 L 466.79 129.93 L 466.79 128.04 L 466.31 127.57 L 466.31 127.10 L 464.90 125.69 L 463.96 125.69 L 463.49 125.21 L 420.11 125.21 L 419.64 125.69 L 418.70 125.69 L 417.29 127.10 L 417.29 127.57 Z M 228.71 127.57 L 228.71 130.40 L 230.60 132.29 L 240.03 132.29 L 240.50 132.76 L 274.44 132.76 L 274.91 132.29 L 276.80 132.29 L 277.27 131.81 L 277.74 131.81 L 278.69 130.87 L 278.69 130.40 L 279.16 129.93 L 279.16 128.04 L 278.69 127.57 L 278.69 127.10 L 277.27 125.69 L 276.33 125.69 L 275.86 125.21 L 231.54 125.21 L 231.07 125.69 L 230.60 125.69 L 230.13 126.16 L 229.66 126.16 L 229.66 126.63 Z M 637.44 103.53 L 637.44 104.00 L 636.97 104.47 L 636.97 105.89 L 637.44 106.36 L 637.44 106.83 L 637.91 107.30 L 637.91 107.77 L 638.39 108.24 L 638.86 108.24 L 639.33 108.71 L 656.77 108.71 L 657.24 109.19 L 657.24 119.09 L 657.71 119.56 L 657.71 120.03 L 659.13 121.44 L 660.07 121.44 L 660.54 121.91 L 661.49 121.91 L 661.96 121.44 L 662.90 121.44 L 664.31 120.03 L 664.31 112.96 L 664.79 112.49 L 664.79 109.66 L 664.31 109.19 L 664.31 104.00 L 663.84 103.53 L 663.84 103.06 L 663.37 102.59 L 662.90 102.59 L 662.43 102.11 L 661.96 102.11 L 661.49 101.64 L 640.27 101.64 L 639.80 102.11 L 638.86 102.11 Z M 416.81 103.53 L 416.81 104.94 L 417.29 105.41 L 417.29 105.89 L 417.76 106.36 L 417.76 106.83 L 418.23 106.83 L 418.70 107.30 L 419.17 107.30 L 419.64 107.77 L 464.43 107.77 L 464.90 107.30 L 465.37 107.30 L 466.31 106.36 L 466.31 105.41 L 466.79 104.94 L 466.79 103.06 L 465.84 102.11 L 465.84 101.64 L 465.37 101.64 L 464.90 101.17 L 464.43 101.17 L 463.96 100.70 L 419.64 100.70 L 419.17 101.17 L 418.70 101.17 L 417.29 102.59 L 417.29 103.06 Z M 228.71 103.06 L 228.71 105.41 L 229.19 105.89 L 229.19 106.36 L 230.13 107.30 L 230.60 107.30 L 231.07 107.77 L 276.33 107.77 L 276.80 107.30 L 277.27 107.30 L 278.69 105.89 L 278.69 105.41 L 279.16 104.94 L 279.16 103.53 L 278.69 103.06 L 278.69 102.59 L 277.27 101.17 L 276.80 101.17 L 276.33 100.70 L 231.54 100.70 L 231.07 101.17 L 230.60 101.17 L 230.13 101.64 L 229.66 101.64 L 229.19 102.11 L 229.19 102.59 Z M 609.16 95.99 L 609.16 96.46 L 608.69 96.93 L 608.69 97.87 L 608.21 98.34 L 608.21 99.29 L 607.74 99.76 L 607.74 101.64 L 607.27 102.11 L 607.27 107.77 L 607.74 108.24 L 607.74 111.07 L 608.21 111.54 L 608.21 112.49 L 608.69 112.96 L 608.69 113.90 L 609.16 114.37 L 609.16 115.31 L 609.63 115.79 L 609.63 116.26 L 610.10 116.73 L 610.10 117.20 L 610.57 117.67 L 610.57 118.14 L 611.04 118.61 L 611.04 119.09 L 611.51 119.56 L 611.51 120.03 L 612.46 120.97 L 612.46 121.44 L 618.11 127.10 L 618.59 127.10 L 620.00 128.51 L 620.47 128.51 L 620.94 128.99 L 621.41 128.99 L 622.36 129.93 L 622.83 129.93 L 623.30 130.40 L 624.24 130.40 L 624.71 130.87 L 625.19 130.87 L 625.66 131.34 L 626.60 131.34 L 627.07 131.81 L 628.01 131.81 L 628.49 132.29 L 629.90 132.29 L 630.37 132.76 L 632.26 132.76 L 632.73 133.23 L 637.91 133.23 L 638.39 133.70 L 638.86 133.70 L 639.33 133.23 L 644.51 133.23 L 644.99 132.76 L 646.87 132.76 L 647.34 132.29 L 648.76 132.29 L 649.23 131.81 L 650.17 131.81 L 650.64 131.34 L 651.59 131.34 L 652.06 130.87 L 653.00 130.87 L 653.47 130.40 L 653.94 130.40 L 654.41 129.93 L 654.89 129.93 L 655.36 129.46 L 655.83 129.46 L 656.77 128.51 L 657.24 128.51 L 658.66 127.10 L 658.66 126.63 L 656.77 124.74 L 656.77 124.27 L 656.30 124.27 L 654.41 122.39 L 653.47 122.39 L 653.00 122.86 L 652.53 122.86 L 652.06 123.33 L 651.59 123.33 L 651.11 123.80 L 650.64 123.80 L 650.17 124.27 L 649.23 124.27 L 648.76 124.74 L 647.81 124.74 L 647.34 125.21 L 646.40 125.21 L 645.93 125.69 L 644.04 125.69 L 643.57 126.16 L 633.67 126.16 L 633.20 125.69 L 631.31 125.69 L 630.84 125.21 L 629.90 125.21 L 629.43 124.74 L 628.49 124.74 L 628.01 124.27 L 627.54 124.27 L 627.07 123.80 L 626.60 123.80 L 626.13 123.33 L 625.66 123.33 L 625.19 122.86 L 624.71 122.86 L 624.24 122.39 L 623.77 122.39 L 621.89 120.50 L 621.41 120.50 L 619.53 118.61 L 619.53 118.14 L 618.11 116.73 L 618.11 116.26 L 617.17 115.31 L 617.17 114.84 L 616.70 114.37 L 616.70 113.90 L 616.23 113.43 L 616.23 112.96 L 615.76 112.49 L 615.76 111.54 L 615.29 111.07 L 615.29 110.13 L 614.81 109.66 L 614.81 99.29 L 613.87 98.34 L 613.40 98.34 L 612.93 97.87 L 612.46 97.87 L 611.99 97.40 L 611.51 97.40 L 610.57 96.46 L 610.10 96.46 L 609.63 95.99 Z M 1139.04 76.19 L 1138.57 76.66 L 1138.10 76.66 L 1137.63 77.13 L 1137.63 77.60 L 1137.16 78.07 L 1137.16 78.54 L 1136.69 79.01 L 1136.69 79.49 L 1137.16 79.96 L 1137.16 81.37 L 1138.57 82.79 L 1139.04 82.79 L 1139.51 83.26 L 1158.84 83.26 L 1159.31 83.73 L 1159.31 129.93 L 1159.79 130.40 L 1159.79 130.87 L 1160.26 131.34 L 1160.26 131.81 L 1160.73 131.81 L 1161.67 132.76 L 1164.03 132.76 L 1164.50 132.29 L 1164.97 132.29 L 1166.39 130.87 L 1166.39 86.09 L 1166.86 85.61 L 1166.86 83.73 L 1167.33 83.26 L 1186.66 83.26 L 1187.13 82.79 L 1187.60 82.79 L 1188.07 82.31 L 1188.54 82.31 L 1188.54 81.84 L 1189.49 80.90 L 1189.49 78.54 L 1189.01 78.07 L 1189.01 77.60 L 1187.60 76.19 Z M 962.26 76.66 L 961.31 77.60 L 961.31 78.07 L 960.84 78.54 L 960.84 130.87 L 962.26 132.29 L 962.73 132.29 L 963.20 132.76 L 1001.86 132.76 L 1002.33 132.29 L 1003.27 132.29 L 1004.69 130.87 L 1004.69 130.40 L 1005.16 129.93 L 1005.16 128.04 L 1004.69 127.57 L 1004.69 127.10 L 1003.74 126.16 L 1003.27 126.16 L 1002.80 125.69 L 968.39 125.69 L 967.91 125.21 L 967.91 78.54 L 967.44 78.07 L 967.44 77.60 L 966.50 76.66 L 966.03 76.66 L 965.56 76.19 L 963.20 76.19 L 962.73 76.66 Z M 906.63 76.19 L 904.74 78.07 L 904.74 79.01 L 904.27 79.49 L 904.27 128.04 L 904.74 128.51 L 904.74 130.87 L 905.21 131.34 L 905.21 131.81 L 905.69 131.81 L 906.63 132.76 L 909.46 132.76 L 910.40 131.81 L 910.87 131.81 L 910.87 131.34 L 911.34 130.87 L 911.34 130.40 L 911.81 129.93 L 911.81 79.01 L 911.34 78.54 L 911.34 78.07 L 909.46 76.19 Z M 855.71 79.01 L 855.24 79.01 L 854.77 78.54 L 854.30 78.54 L 853.36 77.60 L 852.41 77.60 L 851.94 77.13 L 851.47 77.13 L 851.00 76.66 L 849.59 76.66 L 849.11 76.19 L 813.76 76.19 L 813.29 76.66 L 812.81 76.66 L 811.40 78.07 L 811.40 79.01 L 810.93 79.49 L 810.93 79.96 L 811.40 80.43 L 811.40 81.37 L 812.81 82.79 L 813.76 82.79 L 814.23 83.26 L 848.64 83.26 L 849.11 83.73 L 849.59 83.73 L 850.06 84.20 L 850.53 84.20 L 851.00 84.67 L 851.47 84.67 L 853.83 87.03 L 853.83 87.50 L 854.77 88.44 L 854.77 89.39 L 855.24 89.86 L 855.24 91.27 L 855.71 91.74 L 855.71 94.57 L 855.24 95.04 L 855.24 96.46 L 854.77 96.93 L 854.77 97.40 L 854.30 97.87 L 854.30 98.34 L 853.36 99.29 L 853.36 99.76 L 851.94 101.17 L 851.47 101.17 L 850.53 102.11 L 850.06 102.11 L 849.59 102.59 L 848.64 102.59 L 848.17 103.06 L 814.70 103.06 L 814.23 103.53 L 813.29 103.53 L 812.81 104.00 L 812.34 104.00 L 811.87 104.47 L 811.87 104.94 L 811.40 105.41 L 811.40 130.87 L 811.87 131.34 L 811.87 131.81 L 812.34 132.29 L 812.81 132.29 L 813.29 132.76 L 816.11 132.76 L 816.59 132.29 L 817.06 132.29 L 817.53 131.81 L 817.53 131.34 L 818.00 130.87 L 818.00 130.40 L 818.47 129.93 L 818.47 110.60 L 818.94 110.13 L 848.64 110.13 L 849.11 109.66 L 850.53 109.66 L 851.00 109.19 L 851.94 109.19 L 852.41 108.71 L 852.89 108.71 L 853.36 108.24 L 853.83 108.24 L 854.30 107.77 L 854.77 107.77 L 856.19 106.36 L 856.66 106.36 L 858.54 104.47 L 858.54 104.00 L 859.96 102.59 L 859.96 102.11 L 860.43 101.64 L 860.43 101.17 L 860.90 100.70 L 860.90 100.23 L 861.37 99.76 L 861.37 99.29 L 861.84 98.81 L 861.84 97.87 L 862.31 97.40 L 862.31 95.04 L 862.79 94.57 L 862.79 91.74 L 862.31 91.27 L 862.31 88.91 L 861.84 88.44 L 861.84 87.50 L 861.37 87.03 L 861.37 86.09 L 860.90 85.61 L 860.90 85.14 L 860.43 84.67 L 860.43 84.20 L 859.49 83.26 L 859.49 82.79 Z M 711.93 76.19 L 711.46 76.66 L 710.99 76.66 L 710.51 77.13 L 710.04 77.13 L 710.04 77.60 L 709.10 78.54 L 709.10 80.90 L 709.57 81.37 L 709.57 81.84 L 711.93 84.20 L 711.93 84.67 L 714.76 87.50 L 714.76 87.97 L 717.11 90.33 L 717.11 90.80 L 719.94 93.63 L 719.94 94.10 L 721.36 95.51 L 721.36 95.99 L 723.71 98.34 L 723.71 98.81 L 726.54 101.64 L 726.54 102.11 L 728.43 104.00 L 728.43 104.47 L 731.26 107.30 L 731.26 107.77 L 732.67 109.19 L 732.67 130.87 L 733.14 131.34 L 733.14 131.81 L 733.61 132.29 L 734.09 132.29 L 734.56 132.76 L 737.39 132.76 L 737.86 132.29 L 738.33 132.29 L 738.80 131.81 L 738.80 131.34 L 739.27 130.87 L 739.27 109.19 L 741.63 106.83 L 741.63 106.36 L 744.46 103.53 L 744.46 103.06 L 748.23 99.29 L 748.23 98.81 L 750.59 96.46 L 750.59 95.99 L 754.36 92.21 L 754.36 91.74 L 756.71 89.39 L 756.71 88.91 L 759.54 86.09 L 759.54 85.61 L 762.37 82.79 L 762.37 82.31 L 763.79 80.90 L 763.79 78.54 L 763.31 78.07 L 763.31 77.60 L 762.37 76.66 L 761.90 76.66 L 761.43 76.19 L 759.07 76.19 L 758.60 76.66 L 758.13 76.66 L 755.77 79.01 L 755.77 79.49 L 752.47 82.79 L 752.47 83.26 L 750.11 85.61 L 750.11 86.09 L 746.81 89.39 L 746.81 89.86 L 743.99 92.69 L 743.99 93.16 L 741.16 95.99 L 741.16 96.46 L 737.86 99.76 L 737.86 100.23 L 736.44 101.64 L 735.97 101.64 L 734.09 99.76 L 734.09 99.29 L 731.26 96.46 L 731.26 95.99 L 728.43 93.16 L 728.43 92.69 L 726.07 90.33 L 726.07 89.86 L 723.71 87.50 L 723.71 87.03 L 721.36 84.67 L 721.36 84.20 L 719.00 81.84 L 719.00 81.37 L 716.64 79.01 L 716.64 78.54 L 714.76 76.66 L 714.29 76.66 L 713.81 76.19 Z M 512.99 76.66 L 512.04 77.60 L 512.04 78.07 L 511.57 78.54 L 511.57 80.90 L 512.04 81.37 L 512.04 81.84 L 512.51 82.31 L 512.99 82.31 L 513.46 82.79 L 513.93 82.79 L 514.40 83.26 L 549.76 83.26 L 550.23 83.73 L 551.17 83.73 L 551.64 84.20 L 552.11 84.20 L 552.59 84.67 L 553.06 84.67 L 555.89 87.50 L 555.89 87.97 L 556.36 88.44 L 556.36 88.91 L 556.83 89.39 L 556.83 90.33 L 557.30 90.80 L 557.30 95.51 L 556.83 95.99 L 556.83 96.93 L 556.36 97.40 L 556.36 97.87 L 552.59 101.64 L 552.11 101.64 L 551.64 102.11 L 551.17 102.11 L 550.70 102.59 L 549.76 102.59 L 549.29 103.06 L 514.87 103.06 L 514.40 103.53 L 513.46 103.53 L 512.04 104.94 L 512.04 105.41 L 511.57 105.89 L 511.57 130.40 L 512.04 130.87 L 512.04 131.34 L 512.99 132.29 L 513.46 132.29 L 513.93 132.76 L 516.76 132.76 L 518.64 130.87 L 518.64 110.60 L 519.11 110.13 L 541.74 110.13 L 543.16 111.54 L 543.16 112.01 L 545.04 113.90 L 545.04 114.37 L 546.46 115.79 L 546.46 116.26 L 547.87 117.67 L 547.87 118.14 L 549.29 119.56 L 549.29 120.03 L 550.70 121.44 L 550.70 121.91 L 552.11 123.33 L 552.11 123.80 L 554.00 125.69 L 554.00 126.16 L 555.41 127.57 L 555.41 128.04 L 556.83 129.46 L 556.83 129.93 L 559.66 132.76 L 562.49 132.76 L 562.96 132.29 L 563.43 132.29 L 564.37 131.34 L 564.37 130.87 L 564.84 130.40 L 564.84 128.51 L 564.37 128.04 L 564.37 127.57 L 562.49 125.69 L 562.49 125.21 L 561.07 123.80 L 561.07 123.33 L 559.66 121.91 L 559.66 121.44 L 557.77 119.56 L 557.77 119.09 L 556.36 117.67 L 556.36 117.20 L 554.94 115.79 L 554.94 115.31 L 553.53 113.90 L 553.53 113.43 L 552.59 112.49 L 552.59 112.01 L 551.17 110.60 L 551.17 110.13 L 551.64 109.66 L 552.11 109.66 L 552.59 109.19 L 553.53 109.19 L 554.00 108.71 L 554.47 108.71 L 554.94 108.24 L 555.41 108.24 L 555.89 107.77 L 556.36 107.77 L 558.24 105.89 L 558.71 105.89 L 561.07 103.53 L 561.07 103.06 L 562.01 102.11 L 562.01 101.64 L 562.49 101.17 L 562.49 100.70 L 562.96 100.23 L 562.96 99.76 L 563.43 99.29 L 563.43 98.81 L 563.90 98.34 L 563.90 96.93 L 564.37 96.46 L 564.37 89.86 L 563.90 89.39 L 563.90 87.97 L 563.43 87.50 L 563.43 86.56 L 562.96 86.09 L 562.96 85.61 L 562.01 84.67 L 562.01 84.20 L 561.54 83.73 L 561.54 83.26 L 557.30 79.01 L 556.83 79.01 L 556.36 78.54 L 555.89 78.54 L 555.41 78.07 L 554.94 78.07 L 554.47 77.60 L 554.00 77.60 L 553.53 77.13 L 553.06 77.13 L 552.59 76.66 L 551.17 76.66 L 550.70 76.19 L 513.93 76.19 L 513.46 76.66 Z M 416.81 78.54 L 416.81 80.43 L 417.29 80.90 L 417.29 81.37 L 417.76 81.84 L 417.76 82.31 L 418.23 82.31 L 418.70 82.79 L 419.17 82.79 L 419.64 83.26 L 463.96 83.26 L 464.43 82.79 L 464.90 82.79 L 465.37 82.31 L 465.84 82.31 L 465.84 81.84 L 466.31 81.37 L 466.31 80.90 L 466.79 80.43 L 466.79 78.54 L 466.31 78.07 L 466.31 77.60 L 465.37 76.66 L 464.90 76.66 L 464.43 76.19 L 419.17 76.19 L 418.70 76.66 L 418.23 76.66 L 417.29 77.60 L 417.29 78.07 Z M 321.59 76.66 L 320.17 78.07 L 320.17 89.86 L 319.70 90.33 L 319.70 91.74 L 320.17 92.21 L 320.17 130.87 L 321.59 132.29 L 322.06 132.29 L 322.53 132.76 L 324.89 132.76 L 325.36 132.29 L 325.83 132.29 L 326.77 131.34 L 326.77 130.87 L 327.24 130.40 L 327.24 90.80 L 327.71 90.33 L 328.19 90.33 L 332.90 95.04 L 332.90 95.51 L 339.03 101.64 L 339.03 102.11 L 344.21 107.30 L 344.21 107.77 L 349.40 112.96 L 349.40 113.43 L 354.11 118.14 L 354.11 118.61 L 359.30 123.80 L 359.30 124.27 L 364.01 128.99 L 364.01 129.46 L 366.84 132.29 L 367.31 132.29 L 367.79 132.76 L 370.61 132.76 L 372.50 130.87 L 372.50 78.07 L 370.61 76.19 L 367.79 76.19 L 366.84 77.13 L 366.37 77.13 L 366.37 77.60 L 365.90 78.07 L 365.90 78.54 L 365.43 79.01 L 365.43 118.14 L 364.96 118.61 L 364.49 118.61 L 360.24 114.37 L 360.24 113.90 L 354.59 108.24 L 354.59 107.77 L 349.40 102.59 L 349.40 102.11 L 344.21 96.93 L 344.21 96.46 L 339.50 91.74 L 339.50 91.27 L 334.31 86.09 L 334.31 85.61 L 330.07 81.37 L 330.07 80.90 L 325.83 76.66 L 325.36 76.66 L 324.89 76.19 L 322.53 76.19 L 322.06 76.66 Z M 228.71 78.54 L 228.71 80.90 L 229.19 81.37 L 229.19 81.84 L 229.66 82.31 L 230.13 82.31 L 230.60 82.79 L 231.07 82.79 L 231.54 83.26 L 276.33 83.26 L 276.80 82.79 L 277.27 82.79 L 279.16 80.90 L 279.16 78.54 L 278.69 78.07 L 278.69 77.60 L 277.74 76.66 L 277.27 76.66 L 276.80 76.19 L 231.07 76.19 L 230.60 76.66 L 230.13 76.66 L 229.19 77.60 L 229.19 78.07 Z M 1061.73 76.66 L 1061.26 77.13 L 1060.31 77.13 L 1059.84 77.60 L 1058.90 77.60 L 1058.43 78.07 L 1057.49 78.07 L 1057.01 78.54 L 1056.54 78.54 L 1056.07 79.01 L 1055.60 79.01 L 1054.66 79.96 L 1054.19 79.96 L 1053.71 80.43 L 1053.24 80.43 L 1052.30 81.37 L 1051.83 81.37 L 1049.47 83.73 L 1049.00 83.73 L 1048.06 84.67 L 1048.06 85.14 L 1045.70 87.50 L 1045.70 87.97 L 1044.76 88.91 L 1044.76 89.39 L 1044.29 89.86 L 1044.29 90.33 L 1043.34 91.27 L 1043.34 91.74 L 1042.87 92.21 L 1042.87 93.16 L 1042.40 93.63 L 1042.40 94.10 L 1041.93 94.57 L 1041.93 95.51 L 1041.46 95.99 L 1041.46 96.93 L 1040.99 97.40 L 1040.99 99.29 L 1040.51 99.76 L 1040.51 103.06 L 1040.04 103.53 L 1040.04 105.89 L 1040.51 106.36 L 1040.51 109.66 L 1040.99 110.13 L 1040.99 112.01 L 1041.46 112.49 L 1041.46 113.43 L 1041.93 113.90 L 1041.93 114.84 L 1042.40 115.31 L 1042.40 115.79 L 1042.87 116.26 L 1042.87 116.73 L 1043.34 117.20 L 1043.34 117.67 L 1043.81 118.14 L 1043.81 118.61 L 1044.76 119.56 L 1044.76 120.03 L 1045.70 120.97 L 1045.70 121.44 L 1046.64 122.39 L 1046.64 122.86 L 1049.94 126.16 L 1050.41 126.16 L 1052.30 128.04 L 1052.77 128.04 L 1053.71 128.99 L 1054.19 128.99 L 1055.13 129.93 L 1055.60 129.93 L 1056.07 130.40 L 1056.54 130.40 L 1057.01 130.87 L 1057.49 130.87 L 1057.96 131.34 L 1058.90 131.34 L 1059.37 131.81 L 1059.84 131.81 L 1060.31 132.29 L 1061.73 132.29 L 1062.20 132.76 L 1063.61 132.76 L 1064.09 133.23 L 1066.44 133.23 L 1066.91 133.70 L 1074.93 133.70 L 1075.40 133.23 L 1077.76 133.23 L 1078.23 132.76 L 1079.64 132.76 L 1080.11 132.29 L 1081.06 132.29 L 1081.53 131.81 L 1082.47 131.81 L 1082.94 131.34 L 1083.89 131.34 L 1084.36 130.87 L 1084.83 130.87 L 1085.30 130.40 L 1085.77 130.40 L 1086.71 129.46 L 1087.19 129.46 L 1088.13 128.51 L 1088.60 128.51 L 1089.54 127.57 L 1090.01 127.57 L 1095.67 121.91 L 1095.67 121.44 L 1096.61 120.50 L 1096.61 120.03 L 1097.09 119.56 L 1097.09 119.09 L 1098.03 118.14 L 1098.03 117.67 L 1098.50 117.20 L 1098.50 116.26 L 1098.97 115.79 L 1098.97 115.31 L 1099.44 114.84 L 1099.44 113.90 L 1099.91 113.43 L 1099.91 112.01 L 1100.39 111.54 L 1100.39 110.13 L 1100.86 109.66 L 1100.86 99.76 L 1100.39 99.29 L 1100.39 97.40 L 1099.91 96.93 L 1099.91 95.99 L 1099.44 95.51 L 1099.44 94.57 L 1098.97 94.10 L 1098.97 93.16 L 1098.50 92.69 L 1098.50 92.21 L 1098.03 91.74 L 1098.03 91.27 L 1097.56 90.80 L 1097.56 90.33 L 1096.61 89.39 L 1096.61 88.91 L 1095.67 87.97 L 1095.67 87.50 L 1093.79 85.61 L 1093.79 85.14 L 1092.37 83.73 L 1091.90 83.73 L 1089.54 81.37 L 1089.07 81.37 L 1087.66 79.96 L 1087.19 79.96 L 1086.71 79.49 L 1086.24 79.49 L 1085.77 79.01 L 1085.30 79.01 L 1084.83 78.54 L 1084.36 78.54 L 1083.89 78.07 L 1083.41 78.07 L 1082.94 77.60 L 1082.00 77.60 L 1081.53 77.13 L 1080.59 77.13 L 1080.11 76.66 L 1078.70 76.66 L 1078.23 76.19 L 1076.34 76.19 L 1075.87 75.71 L 1065.97 75.71 L 1065.50 76.19 L 1063.61 76.19 L 1063.14 76.66 Z M 1065.97 82.79 L 1070.21 82.79 L 1070.69 82.31 L 1071.16 82.31 L 1071.63 82.79 L 1075.87 82.79 L 1076.34 83.26 L 1077.76 83.26 L 1078.23 83.73 L 1079.17 83.73 L 1079.64 84.20 L 1080.11 84.20 L 1080.59 84.67 L 1081.53 84.67 L 1082.47 85.61 L 1082.94 85.61 L 1083.41 86.09 L 1083.89 86.09 L 1084.83 87.03 L 1085.30 87.03 L 1089.54 91.27 L 1089.54 91.74 L 1090.49 92.69 L 1090.49 93.16 L 1091.43 94.10 L 1091.43 94.57 L 1091.90 95.04 L 1091.90 95.51 L 1092.37 95.99 L 1092.37 96.93 L 1092.84 97.40 L 1092.84 98.34 L 1093.31 98.81 L 1093.31 100.70 L 1093.79 101.17 L 1093.79 108.24 L 1093.31 108.71 L 1093.31 110.13 L 1092.84 110.60 L 1092.84 111.54 L 1092.37 112.01 L 1092.37 112.96 L 1091.90 113.43 L 1091.90 113.90 L 1091.43 114.37 L 1091.43 114.84 L 1090.96 115.31 L 1090.96 115.79 L 1090.01 116.73 L 1090.01 117.20 L 1085.30 121.91 L 1084.83 121.91 L 1083.41 123.33 L 1082.94 123.33 L 1082.47 123.80 L 1082.00 123.80 L 1081.53 124.27 L 1081.06 124.27 L 1080.59 124.74 L 1079.64 124.74 L 1079.17 125.21 L 1078.23 125.21 L 1077.76 125.69 L 1076.34 125.69 L 1075.87 126.16 L 1073.51 126.16 L 1073.04 126.63 L 1068.33 126.63 L 1067.86 126.16 L 1065.50 126.16 L 1065.03 125.69 L 1063.61 125.69 L 1063.14 125.21 L 1062.20 125.21 L 1061.73 124.74 L 1060.79 124.74 L 1060.31 124.27 L 1059.84 124.27 L 1059.37 123.80 L 1058.90 123.80 L 1058.43 123.33 L 1057.96 123.33 L 1057.01 122.39 L 1056.54 122.39 L 1051.36 117.20 L 1051.36 116.73 L 1050.41 115.79 L 1050.41 115.31 L 1049.47 114.37 L 1049.47 113.43 L 1049.00 112.96 L 1049.00 112.49 L 1048.53 112.01 L 1048.53 111.54 L 1048.06 111.07 L 1048.06 109.66 L 1047.59 109.19 L 1047.59 107.30 L 1047.11 106.83 L 1047.11 102.59 L 1047.59 102.11 L 1047.59 100.23 L 1048.06 99.76 L 1048.06 98.34 L 1048.53 97.87 L 1048.53 97.40 L 1049.00 96.93 L 1049.00 95.99 L 1049.47 95.51 L 1049.47 95.04 L 1049.94 94.57 L 1049.94 94.10 L 1050.89 93.16 L 1050.89 92.69 L 1052.30 91.27 L 1052.30 90.80 L 1055.60 87.50 L 1056.07 87.50 L 1057.01 86.56 L 1057.49 86.56 L 1058.43 85.61 L 1058.90 85.61 L 1059.37 85.14 L 1059.84 85.14 L 1060.31 84.67 L 1060.79 84.67 L 1061.26 84.20 L 1062.20 84.20 L 1062.67 83.73 L 1063.61 83.73 L 1064.09 83.26 L 1065.50 83.26 Z M 613.87 87.97 L 614.34 87.97 L 615.29 88.91 L 615.76 88.91 L 616.70 89.86 L 617.17 89.86 L 617.64 90.33 L 618.11 90.33 L 618.59 90.80 L 619.53 90.80 L 623.30 87.03 L 623.77 87.03 L 624.71 86.09 L 625.19 86.09 L 625.66 85.61 L 626.13 85.61 L 626.60 85.14 L 627.07 85.14 L 627.54 84.67 L 628.49 84.67 L 628.96 84.20 L 629.90 84.20 L 630.37 83.73 L 631.31 83.73 L 631.79 83.26 L 634.14 83.26 L 634.61 82.79 L 645.93 82.79 L 646.40 83.26 L 649.23 83.26 L 649.70 83.73 L 651.11 83.73 L 651.59 84.20 L 653.47 84.20 L 653.94 84.67 L 654.89 84.67 L 655.36 85.14 L 656.30 85.14 L 656.77 85.61 L 657.71 85.61 L 658.19 85.14 L 659.13 85.14 L 661.01 83.26 L 661.01 80.90 L 660.54 80.43 L 660.54 79.96 L 659.60 79.01 L 659.13 79.01 L 658.66 78.54 L 658.19 78.54 L 657.71 78.07 L 656.30 78.07 L 655.83 77.60 L 654.41 77.60 L 653.94 77.13 L 652.53 77.13 L 652.06 76.66 L 649.70 76.66 L 649.23 76.19 L 644.99 76.19 L 644.51 75.71 L 636.03 75.71 L 635.56 76.19 L 632.26 76.19 L 631.79 76.66 L 629.90 76.66 L 629.43 77.13 L 628.49 77.13 L 628.01 77.60 L 626.60 77.60 L 626.13 78.07 L 625.66 78.07 L 625.19 78.54 L 624.24 78.54 L 623.77 79.01 L 623.30 79.01 L 622.83 79.49 L 622.36 79.49 L 621.41 80.43 L 620.94 80.43 L 620.47 80.90 L 620.00 80.90 L 619.06 81.84 L 618.59 81.84 L 616.70 83.73 L 616.23 83.73 L 615.29 84.67 L 615.29 85.14 L 613.87 86.56 Z" fill="#000000" fill-rule="evenodd"/>
</svg>