<svg xmlns="http://www.w3.org/2000/svg" width="320" height="135" viewBox="0 0 320 135" preserveAspectRatio="xMidYMid meet" role="img" aria-label="EnergyPilot Sidebar Header xl">
  <title>EnergyPilot Sidebar Header xl</title>
  <rect width="320" height="135" fill="transparent"/>
  <g transform="translate(8.00 4.00) scale(0.1858191)">
    <path d="M 1314.00 339.00 L 1313.00 340.00 L 1313.00 342.00 L 1314.00 343.00 L 1316.00 343.00 L 1316.00 340.00 L 1315.00 339.00 Z M 1303.00 321.00 L 1301.00 321.00 L 1300.00 322.00 L 1300.00 324.00 L 1299.00 325.00 L 1299.00 327.00 L 1298.00 328.00 L 1298.00 329.00 L 1297.00 330.00 L 1297.00 332.00 L 1296.00 333.00 L 1296.00 335.00 L 1294.00 337.00 L 1293.00 337.00 L 1292.00 336.00 L 1292.00 334.00 L 1291.00 333.00 L 1291.00 331.00 L 1290.00 330.00 L 1290.00 328.00 L 1289.00 327.00 L 1289.00 326.00 L 1288.00 325.00 L 1288.00 323.00 L 1287.00 322.00 L 1287.00 321.00 L 1284.00 321.00 L 1284.00 322.00 L 1285.00 323.00 L 1285.00 324.00 L 1286.00 325.00 L 1286.00 327.00 L 1287.00 328.00 L 1287.00 329.00 L 1288.00 330.00 L 1288.00 332.00 L 1289.00 333.00 L 1289.00 334.00 L 1290.00 335.00 L 1290.00 337.00 L 1291.00 338.00 L 1291.00 340.00 L 1292.00 341.00 L 1292.00 344.00 L 1291.00 345.00 L 1291.00 347.00 L 1288.00 350.00 L 1286.00 350.00 L 1285.00 351.00 L 1285.00 352.00 L 1290.00 352.00 L 1293.00 349.00 L 1293.00 348.00 L 1294.00 347.00 L 1294.00 345.00 L 1295.00 344.00 L 1295.00 342.00 L 1296.00 341.00 L 1296.00 340.00 L 1297.00 339.00 L 1297.00 337.00 L 1298.00 336.00 L 1298.00 334.00 L 1299.00 333.00 L 1299.00 332.00 L 1300.00 331.00 L 1300.00 329.00 L 1301.00 328.00 L 1301.00 327.00 L 1302.00 326.00 L 1302.00 324.00 L 1303.00 323.00 Z M 1249.00 321.00 L 1249.00 343.00 L 1251.00 343.00 L 1251.00 321.00 Z M 1186.00 321.00 L 1186.00 339.00 L 1189.00 342.00 L 1190.00 342.00 L 1191.00 343.00 L 1196.00 343.00 L 1197.00 342.00 L 1198.00 342.00 L 1199.00 341.00 L 1200.00 341.00 L 1201.00 342.00 L 1201.00 343.00 L 1203.00 343.00 L 1204.00 342.00 L 1204.00 321.00 L 1201.00 321.00 L 1201.00 336.00 L 1200.00 337.00 L 1200.00 338.00 L 1199.00 339.00 L 1198.00 339.00 L 1196.00 341.00 L 1193.00 341.00 L 1192.00 340.00 L 1191.00 340.00 L 1189.00 338.00 L 1189.00 337.00 L 1188.00 336.00 L 1188.00 321.00 Z M 985.00 321.00 L 983.00 321.00 L 982.00 322.00 L 982.00 324.00 L 981.00 325.00 L 981.00 327.00 L 980.00 328.00 L 980.00 329.00 L 979.00 330.00 L 979.00 332.00 L 978.00 333.00 L 978.00 334.00 L 977.00 335.00 L 977.00 336.00 L 976.00 337.00 L 975.00 337.00 L 974.00 336.00 L 974.00 334.00 L 973.00 333.00 L 973.00 331.00 L 972.00 330.00 L 972.00 328.00 L 971.00 327.00 L 971.00 326.00 L 970.00 325.00 L 970.00 323.00 L 969.00 322.00 L 969.00 321.00 L 966.00 321.00 L 966.00 322.00 L 967.00 323.00 L 967.00 325.00 L 968.00 326.00 L 968.00 327.00 L 969.00 328.00 L 969.00 330.00 L 970.00 331.00 L 970.00 333.00 L 971.00 334.00 L 971.00 335.00 L 972.00 336.00 L 972.00 337.00 L 973.00 338.00 L 973.00 340.00 L 974.00 341.00 L 974.00 344.00 L 973.00 345.00 L 973.00 346.00 L 972.00 347.00 L 972.00 348.00 L 971.00 349.00 L 970.00 349.00 L 969.00 350.00 L 967.00 350.00 L 967.00 352.00 L 971.00 352.00 L 972.00 351.00 L 973.00 351.00 L 974.00 350.00 L 974.00 349.00 L 975.00 348.00 L 975.00 347.00 L 976.00 346.00 L 976.00 344.00 L 977.00 343.00 L 977.00 342.00 L 978.00 341.00 L 978.00 339.00 L 979.00 338.00 L 979.00 337.00 L 980.00 336.00 L 980.00 334.00 L 981.00 333.00 L 981.00 331.00 L 982.00 330.00 L 982.00 329.00 L 983.00 328.00 L 983.00 326.00 L 984.00 325.00 L 984.00 324.00 L 985.00 323.00 Z M 792.00 321.00 L 790.00 321.00 L 789.00 322.00 L 789.00 324.00 L 788.00 325.00 L 788.00 326.00 L 787.00 327.00 L 787.00 329.00 L 786.00 330.00 L 786.00 332.00 L 785.00 333.00 L 785.00 334.00 L 784.00 335.00 L 784.00 336.00 L 783.00 337.00 L 782.00 337.00 L 781.00 336.00 L 781.00 334.00 L 780.00 333.00 L 780.00 331.00 L 779.00 330.00 L 779.00 329.00 L 778.00 328.00 L 778.00 326.00 L 777.00 325.00 L 777.00 324.00 L 776.00 323.00 L 776.00 321.00 L 773.00 321.00 L 773.00 322.00 L 774.00 323.00 L 774.00 325.00 L 775.00 326.00 L 775.00 328.00 L 776.00 329.00 L 776.00 330.00 L 777.00 331.00 L 777.00 333.00 L 778.00 334.00 L 778.00 335.00 L 779.00 336.00 L 779.00 337.00 L 780.00 338.00 L 780.00 340.00 L 781.00 341.00 L 781.00 343.00 L 780.00 344.00 L 780.00 346.00 L 779.00 347.00 L 779.00 348.00 L 778.00 349.00 L 777.00 349.00 L 776.00 350.00 L 775.00 350.00 L 774.00 351.00 L 774.00 352.00 L 779.00 352.00 L 781.00 350.00 L 781.00 349.00 L 782.00 348.00 L 782.00 347.00 L 783.00 346.00 L 783.00 344.00 L 784.00 343.00 L 784.00 342.00 L 785.00 341.00 L 785.00 340.00 L 786.00 339.00 L 786.00 337.00 L 787.00 336.00 L 787.00 334.00 L 788.00 333.00 L 788.00 331.00 L 789.00 330.00 L 789.00 329.00 L 790.00 328.00 L 790.00 326.00 L 791.00 325.00 L 791.00 323.00 L 792.00 322.00 Z M 692.00 321.00 L 692.00 323.00 L 693.00 324.00 L 693.00 326.00 L 694.00 327.00 L 694.00 328.00 L 695.00 329.00 L 695.00 331.00 L 696.00 332.00 L 696.00 334.00 L 697.00 335.00 L 697.00 336.00 L 698.00 337.00 L 698.00 339.00 L 699.00 340.00 L 699.00 341.00 L 700.00 342.00 L 700.00 343.00 L 703.00 343.00 L 703.00 341.00 L 704.00 340.00 L 704.00 339.00 L 705.00 338.00 L 705.00 336.00 L 706.00 335.00 L 706.00 334.00 L 707.00 333.00 L 707.00 331.00 L 708.00 330.00 L 708.00 328.00 L 709.00 327.00 L 709.00 326.00 L 710.00 325.00 L 710.00 324.00 L 711.00 323.00 L 711.00 321.00 L 709.00 321.00 L 708.00 322.00 L 708.00 324.00 L 707.00 325.00 L 707.00 326.00 L 706.00 327.00 L 706.00 328.00 L 705.00 329.00 L 705.00 331.00 L 704.00 332.00 L 704.00 334.00 L 703.00 335.00 L 703.00 337.00 L 702.00 338.00 L 701.00 338.00 L 700.00 337.00 L 700.00 336.00 L 699.00 335.00 L 699.00 333.00 L 698.00 332.00 L 698.00 330.00 L 697.00 329.00 L 697.00 327.00 L 696.00 326.00 L 696.00 325.00 L 695.00 324.00 L 695.00 322.00 L 694.00 321.00 Z M 515.00 321.00 L 515.00 343.00 L 517.00 343.00 L 517.00 321.00 Z M 484.00 321.00 L 484.00 322.00 L 485.00 323.00 L 485.00 324.00 L 486.00 325.00 L 486.00 327.00 L 487.00 328.00 L 487.00 330.00 L 488.00 331.00 L 488.00 332.00 L 489.00 333.00 L 489.00 335.00 L 490.00 336.00 L 490.00 338.00 L 491.00 339.00 L 491.00 340.00 L 492.00 341.00 L 492.00 343.00 L 495.00 343.00 L 496.00 342.00 L 496.00 340.00 L 497.00 339.00 L 497.00 338.00 L 498.00 337.00 L 498.00 335.00 L 499.00 334.00 L 499.00 333.00 L 500.00 332.00 L 500.00 330.00 L 501.00 329.00 L 501.00 328.00 L 502.00 327.00 L 502.00 325.00 L 503.00 324.00 L 503.00 323.00 L 504.00 322.00 L 504.00 321.00 L 501.00 321.00 L 501.00 322.00 L 500.00 323.00 L 500.00 325.00 L 499.00 326.00 L 499.00 328.00 L 498.00 329.00 L 498.00 331.00 L 497.00 332.00 L 497.00 333.00 L 496.00 334.00 L 496.00 336.00 L 495.00 337.00 L 493.00 337.00 L 492.00 336.00 L 492.00 334.00 L 491.00 333.00 L 491.00 331.00 L 490.00 330.00 L 490.00 328.00 L 489.00 327.00 L 489.00 326.00 L 488.00 325.00 L 488.00 323.00 L 487.00 322.00 L 487.00 321.00 Z M 1232.00 321.00 L 1230.00 321.00 L 1229.00 320.00 L 1226.00 320.00 L 1225.00 321.00 L 1223.00 321.00 L 1222.00 322.00 L 1221.00 322.00 L 1220.00 321.00 L 1217.00 321.00 L 1217.00 343.00 L 1220.00 343.00 L 1220.00 327.00 L 1224.00 323.00 L 1229.00 323.00 L 1232.00 326.00 L 1232.00 342.00 L 1233.00 343.00 L 1235.00 343.00 L 1235.00 325.00 L 1234.00 324.00 L 1234.00 323.00 Z M 1154.00 320.00 L 1151.00 320.00 L 1150.00 321.00 L 1149.00 321.00 L 1148.00 322.00 L 1147.00 322.00 L 1146.00 321.00 L 1144.00 321.00 L 1144.00 343.00 L 1146.00 343.00 L 1146.00 328.00 L 1147.00 327.00 L 1147.00 326.00 L 1150.00 323.00 L 1154.00 323.00 Z M 1119.00 320.00 L 1118.00 321.00 L 1116.00 321.00 L 1112.00 325.00 L 1112.00 326.00 L 1111.00 327.00 L 1111.00 337.00 L 1113.00 339.00 L 1113.00 340.00 L 1114.00 341.00 L 1115.00 341.00 L 1116.00 342.00 L 1117.00 342.00 L 1118.00 343.00 L 1124.00 343.00 L 1125.00 342.00 L 1126.00 342.00 L 1127.00 341.00 L 1128.00 341.00 L 1129.00 340.00 L 1129.00 339.00 L 1131.00 337.00 L 1131.00 334.00 L 1132.00 333.00 L 1132.00 329.00 L 1131.00 328.00 L 1131.00 327.00 L 1130.00 326.00 L 1130.00 325.00 L 1126.00 321.00 L 1125.00 321.00 L 1124.00 320.00 Z M 1118.00 323.00 L 1124.00 323.00 L 1125.00 324.00 L 1126.00 324.00 L 1127.00 325.00 L 1127.00 326.00 L 1128.00 327.00 L 1128.00 328.00 L 1129.00 329.00 L 1129.00 335.00 L 1128.00 336.00 L 1128.00 337.00 L 1125.00 340.00 L 1124.00 340.00 L 1123.00 341.00 L 1119.00 341.00 L 1117.00 339.00 L 1116.00 339.00 L 1115.00 338.00 L 1115.00 337.00 L 1114.00 336.00 L 1114.00 334.00 L 1113.00 333.00 L 1113.00 330.00 L 1114.00 329.00 L 1114.00 327.00 Z M 1092.00 320.00 L 1088.00 320.00 L 1087.00 321.00 L 1086.00 321.00 L 1085.00 322.00 L 1083.00 322.00 L 1082.00 321.00 L 1079.00 321.00 L 1079.00 352.00 L 1082.00 352.00 L 1082.00 342.00 L 1083.00 341.00 L 1084.00 341.00 L 1085.00 342.00 L 1086.00 342.00 L 1087.00 343.00 L 1093.00 343.00 L 1094.00 342.00 L 1095.00 342.00 L 1098.00 339.00 L 1098.00 338.00 L 1099.00 337.00 L 1099.00 327.00 L 1098.00 326.00 L 1098.00 325.00 L 1096.00 323.00 L 1096.00 322.00 L 1095.00 322.00 L 1094.00 321.00 L 1093.00 321.00 Z M 1087.00 323.00 L 1092.00 323.00 L 1096.00 327.00 L 1096.00 329.00 L 1097.00 330.00 L 1097.00 334.00 L 1096.00 335.00 L 1096.00 337.00 L 1093.00 340.00 L 1092.00 340.00 L 1091.00 341.00 L 1087.00 341.00 L 1082.00 336.00 L 1082.00 328.00 L 1083.00 327.00 L 1083.00 326.00 L 1085.00 324.00 L 1086.00 324.00 Z M 1060.00 320.00 L 1056.00 320.00 L 1055.00 321.00 L 1053.00 321.00 L 1051.00 323.00 L 1050.00 323.00 L 1049.00 322.00 L 1049.00 321.00 L 1047.00 321.00 L 1047.00 352.00 L 1049.00 352.00 L 1049.00 342.00 L 1050.00 341.00 L 1051.00 341.00 L 1052.00 342.00 L 1053.00 342.00 L 1054.00 343.00 L 1060.00 343.00 L 1061.00 342.00 L 1062.00 342.00 L 1066.00 338.00 L 1066.00 336.00 L 1067.00 335.00 L 1067.00 328.00 L 1066.00 327.00 L 1066.00 325.00 L 1062.00 321.00 L 1061.00 321.00 Z M 1054.00 323.00 L 1060.00 323.00 L 1063.00 326.00 L 1063.00 327.00 L 1064.00 328.00 L 1064.00 336.00 L 1063.00 337.00 L 1063.00 338.00 L 1061.00 340.00 L 1060.00 340.00 L 1059.00 341.00 L 1055.00 341.00 L 1054.00 340.00 L 1053.00 340.00 L 1051.00 338.00 L 1051.00 337.00 L 1049.00 335.00 L 1049.00 329.00 L 1050.00 328.00 L 1050.00 327.00 Z M 1022.00 320.00 L 1021.00 321.00 L 1019.00 321.00 L 1014.00 326.00 L 1014.00 329.00 L 1013.00 330.00 L 1013.00 333.00 L 1014.00 334.00 L 1014.00 337.00 L 1016.00 339.00 L 1016.00 340.00 L 1017.00 341.00 L 1018.00 341.00 L 1019.00 342.00 L 1020.00 342.00 L 1021.00 343.00 L 1027.00 343.00 L 1028.00 342.00 L 1029.00 342.00 L 1030.00 341.00 L 1031.00 341.00 L 1032.00 340.00 L 1032.00 339.00 L 1033.00 338.00 L 1033.00 337.00 L 1034.00 336.00 L 1034.00 327.00 L 1033.00 326.00 L 1033.00 325.00 L 1029.00 321.00 L 1027.00 321.00 L 1026.00 320.00 Z M 1021.00 323.00 L 1027.00 323.00 L 1031.00 327.00 L 1031.00 329.00 L 1032.00 330.00 L 1032.00 334.00 L 1031.00 335.00 L 1031.00 337.00 L 1028.00 340.00 L 1027.00 340.00 L 1026.00 341.00 L 1022.00 341.00 L 1021.00 340.00 L 1020.00 340.00 L 1017.00 337.00 L 1017.00 336.00 L 1016.00 335.00 L 1016.00 329.00 L 1017.00 328.00 L 1017.00 327.00 Z M 943.00 320.00 L 942.00 321.00 L 940.00 321.00 L 936.00 325.00 L 936.00 326.00 L 935.00 327.00 L 935.00 329.00 L 934.00 330.00 L 934.00 333.00 L 935.00 334.00 L 935.00 336.00 L 936.00 337.00 L 936.00 338.00 L 937.00 339.00 L 937.00 340.00 L 939.00 342.00 L 941.00 342.00 L 942.00 343.00 L 947.00 343.00 L 948.00 342.00 L 949.00 342.00 L 950.00 341.00 L 951.00 341.00 L 952.00 342.00 L 952.00 345.00 L 951.00 346.00 L 951.00 347.00 L 949.00 349.00 L 948.00 349.00 L 947.00 350.00 L 942.00 350.00 L 941.00 349.00 L 940.00 349.00 L 938.00 347.00 L 937.00 347.00 L 936.00 348.00 L 936.00 349.00 L 938.00 351.00 L 939.00 351.00 L 940.00 352.00 L 948.00 352.00 L 949.00 351.00 L 950.00 351.00 L 951.00 350.00 L 952.00 350.00 L 952.00 349.00 L 954.00 347.00 L 954.00 345.00 L 955.00 344.00 L 955.00 321.00 L 952.00 321.00 L 951.00 322.00 L 950.00 322.00 L 949.00 321.00 L 948.00 321.00 L 947.00 320.00 Z M 942.00 323.00 L 947.00 323.00 L 948.00 324.00 L 949.00 324.00 L 951.00 326.00 L 951.00 327.00 L 952.00 328.00 L 952.00 335.00 L 951.00 336.00 L 951.00 337.00 L 948.00 340.00 L 947.00 340.00 L 946.00 341.00 L 943.00 341.00 L 942.00 340.00 L 941.00 340.00 L 939.00 338.00 L 939.00 337.00 L 938.00 336.00 L 938.00 335.00 L 937.00 334.00 L 937.00 330.00 L 938.00 329.00 L 938.00 327.00 Z M 924.00 320.00 L 923.00 320.00 L 922.00 321.00 L 921.00 321.00 L 919.00 323.00 L 918.00 323.00 L 917.00 322.00 L 917.00 321.00 L 915.00 321.00 L 915.00 343.00 L 917.00 343.00 L 917.00 328.00 L 918.00 327.00 L 918.00 326.00 L 920.00 324.00 L 921.00 324.00 L 922.00 323.00 L 925.00 323.00 L 925.00 321.00 Z M 891.00 320.00 L 890.00 321.00 L 888.00 321.00 L 884.00 325.00 L 884.00 326.00 L 883.00 327.00 L 883.00 329.00 L 882.00 330.00 L 882.00 332.00 L 883.00 333.00 L 883.00 337.00 L 884.00 338.00 L 884.00 339.00 L 887.00 342.00 L 889.00 342.00 L 890.00 343.00 L 896.00 343.00 L 897.00 342.00 L 898.00 342.00 L 899.00 341.00 L 900.00 341.00 L 900.00 340.00 L 901.00 339.00 L 901.00 338.00 L 899.00 338.00 L 897.00 340.00 L 896.00 340.00 L 895.00 341.00 L 891.00 341.00 L 890.00 340.00 L 889.00 340.00 L 886.00 337.00 L 886.00 336.00 L 885.00 335.00 L 885.00 333.00 L 886.00 332.00 L 902.00 332.00 L 902.00 327.00 L 901.00 326.00 L 901.00 325.00 L 900.00 324.00 L 900.00 323.00 L 898.00 321.00 L 896.00 321.00 L 895.00 320.00 Z M 885.00 328.00 L 886.00 327.00 L 886.00 326.00 L 888.00 324.00 L 889.00 324.00 L 890.00 323.00 L 891.00 323.00 L 892.00 322.00 L 893.00 322.00 L 894.00 323.00 L 896.00 323.00 L 899.00 326.00 L 899.00 327.00 L 900.00 328.00 L 900.00 329.00 L 899.00 330.00 L 886.00 330.00 L 885.00 329.00 Z M 867.00 321.00 L 865.00 321.00 L 864.00 320.00 L 861.00 320.00 L 860.00 321.00 L 858.00 321.00 L 857.00 322.00 L 856.00 322.00 L 855.00 321.00 L 852.00 321.00 L 852.00 343.00 L 854.00 343.00 L 855.00 342.00 L 855.00 327.00 L 856.00 326.00 L 856.00 325.00 L 858.00 323.00 L 864.00 323.00 L 867.00 326.00 L 867.00 343.00 L 870.00 343.00 L 870.00 326.00 L 869.00 325.00 L 869.00 324.00 L 868.00 323.00 L 868.00 322.00 Z M 828.00 320.00 L 827.00 321.00 L 826.00 321.00 L 825.00 322.00 L 824.00 322.00 L 822.00 324.00 L 822.00 325.00 L 821.00 326.00 L 821.00 328.00 L 820.00 329.00 L 820.00 334.00 L 821.00 335.00 L 821.00 338.00 L 825.00 342.00 L 826.00 342.00 L 827.00 343.00 L 834.00 343.00 L 835.00 342.00 L 836.00 342.00 L 839.00 339.00 L 839.00 338.00 L 837.00 338.00 L 835.00 340.00 L 833.00 340.00 L 832.00 341.00 L 829.00 341.00 L 828.00 340.00 L 827.00 340.00 L 824.00 337.00 L 824.00 336.00 L 823.00 335.00 L 823.00 333.00 L 824.00 332.00 L 840.00 332.00 L 840.00 328.00 L 839.00 327.00 L 839.00 326.00 L 838.00 325.00 L 838.00 324.00 L 835.00 321.00 L 833.00 321.00 L 832.00 320.00 Z M 823.00 328.00 L 824.00 327.00 L 824.00 326.00 L 827.00 323.00 L 833.00 323.00 L 837.00 327.00 L 837.00 329.00 L 836.00 330.00 L 824.00 330.00 L 823.00 329.00 Z M 763.00 320.00 L 761.00 320.00 L 760.00 321.00 L 759.00 321.00 L 758.00 322.00 L 757.00 322.00 L 756.00 321.00 L 753.00 321.00 L 753.00 342.00 L 754.00 343.00 L 756.00 343.00 L 756.00 328.00 L 757.00 327.00 L 757.00 326.00 L 760.00 323.00 L 764.00 323.00 L 764.00 321.00 Z M 729.00 320.00 L 728.00 321.00 L 727.00 321.00 L 726.00 322.00 L 725.00 322.00 L 723.00 324.00 L 723.00 325.00 L 722.00 326.00 L 722.00 327.00 L 721.00 328.00 L 721.00 335.00 L 722.00 336.00 L 722.00 337.00 L 723.00 338.00 L 723.00 339.00 L 726.00 342.00 L 727.00 342.00 L 728.00 343.00 L 735.00 343.00 L 736.00 342.00 L 737.00 342.00 L 740.00 339.00 L 740.00 338.00 L 738.00 338.00 L 736.00 340.00 L 734.00 340.00 L 733.00 341.00 L 730.00 341.00 L 729.00 340.00 L 728.00 340.00 L 724.00 336.00 L 724.00 333.00 L 725.00 332.00 L 741.00 332.00 L 741.00 327.00 L 740.00 326.00 L 740.00 325.00 L 739.00 324.00 L 739.00 323.00 L 738.00 322.00 L 737.00 322.00 L 736.00 321.00 L 734.00 321.00 L 733.00 320.00 Z M 724.00 328.00 L 725.00 327.00 L 725.00 326.00 L 728.00 323.00 L 730.00 323.00 L 731.00 322.00 L 732.00 322.00 L 733.00 323.00 L 734.00 323.00 L 735.00 324.00 L 736.00 324.00 L 737.00 325.00 L 737.00 326.00 L 738.00 327.00 L 738.00 329.00 L 737.00 330.00 L 725.00 330.00 L 724.00 329.00 Z M 671.00 320.00 L 670.00 321.00 L 668.00 321.00 L 664.00 325.00 L 664.00 326.00 L 663.00 327.00 L 663.00 336.00 L 664.00 337.00 L 664.00 338.00 L 665.00 339.00 L 665.00 340.00 L 666.00 341.00 L 667.00 341.00 L 668.00 342.00 L 669.00 342.00 L 670.00 343.00 L 677.00 343.00 L 678.00 342.00 L 679.00 342.00 L 682.00 339.00 L 682.00 338.00 L 679.00 338.00 L 677.00 340.00 L 676.00 340.00 L 675.00 341.00 L 671.00 341.00 L 670.00 340.00 L 669.00 340.00 L 667.00 338.00 L 667.00 337.00 L 666.00 336.00 L 666.00 333.00 L 667.00 332.00 L 682.00 332.00 L 682.00 326.00 L 681.00 325.00 L 681.00 324.00 L 678.00 321.00 L 676.00 321.00 L 675.00 320.00 Z M 666.00 327.00 L 670.00 323.00 L 676.00 323.00 L 679.00 326.00 L 679.00 327.00 L 680.00 328.00 L 680.00 329.00 L 679.00 330.00 L 667.00 330.00 L 666.00 329.00 Z M 622.00 320.00 L 621.00 321.00 L 619.00 321.00 L 615.00 325.00 L 615.00 326.00 L 614.00 327.00 L 614.00 328.00 L 613.00 329.00 L 613.00 334.00 L 614.00 335.00 L 614.00 337.00 L 615.00 338.00 L 615.00 339.00 L 618.00 342.00 L 620.00 342.00 L 621.00 343.00 L 627.00 343.00 L 628.00 342.00 L 629.00 342.00 L 630.00 341.00 L 631.00 341.00 L 632.00 340.00 L 632.00 338.00 L 630.00 338.00 L 628.00 340.00 L 627.00 340.00 L 626.00 341.00 L 622.00 341.00 L 621.00 340.00 L 620.00 340.00 L 617.00 337.00 L 617.00 333.00 L 618.00 332.00 L 633.00 332.00 L 633.00 326.00 L 632.00 325.00 L 632.00 324.00 L 630.00 322.00 L 629.00 322.00 L 628.00 321.00 L 627.00 321.00 L 626.00 320.00 Z M 617.00 327.00 L 621.00 323.00 L 622.00 323.00 L 623.00 322.00 L 624.00 322.00 L 625.00 323.00 L 627.00 323.00 L 630.00 326.00 L 630.00 329.00 L 629.00 330.00 L 618.00 330.00 L 617.00 329.00 Z M 567.00 321.00 L 564.00 324.00 L 564.00 325.00 L 565.00 326.00 L 566.00 326.00 L 569.00 323.00 L 575.00 323.00 L 577.00 325.00 L 577.00 326.00 L 578.00 327.00 L 578.00 328.00 L 576.00 330.00 L 569.00 330.00 L 568.00 331.00 L 566.00 331.00 L 563.00 334.00 L 563.00 335.00 L 562.00 336.00 L 562.00 337.00 L 563.00 338.00 L 563.00 340.00 L 565.00 342.00 L 566.00 342.00 L 567.00 343.00 L 573.00 343.00 L 574.00 342.00 L 575.00 342.00 L 576.00 341.00 L 577.00 341.00 L 578.00 342.00 L 578.00 343.00 L 580.00 343.00 L 580.00 325.00 L 579.00 324.00 L 579.00 323.00 L 577.00 321.00 L 575.00 321.00 L 574.00 320.00 L 570.00 320.00 L 569.00 321.00 Z M 565.00 336.00 L 566.00 335.00 L 566.00 334.00 L 567.00 333.00 L 568.00 333.00 L 569.00 332.00 L 577.00 332.00 L 578.00 333.00 L 578.00 335.00 L 577.00 336.00 L 577.00 338.00 L 575.00 340.00 L 574.00 340.00 L 573.00 341.00 L 568.00 341.00 L 566.00 339.00 L 566.00 338.00 L 565.00 337.00 Z M 538.00 320.00 L 537.00 321.00 L 536.00 321.00 L 535.00 322.00 L 534.00 322.00 L 532.00 324.00 L 532.00 325.00 L 531.00 326.00 L 531.00 327.00 L 530.00 328.00 L 530.00 335.00 L 531.00 336.00 L 531.00 338.00 L 532.00 339.00 L 532.00 340.00 L 533.00 341.00 L 534.00 341.00 L 535.00 342.00 L 536.00 342.00 L 537.00 343.00 L 542.00 343.00 L 543.00 342.00 L 544.00 342.00 L 545.00 341.00 L 546.00 341.00 L 547.00 342.00 L 547.00 346.00 L 544.00 349.00 L 543.00 349.00 L 542.00 350.00 L 537.00 350.00 L 534.00 347.00 L 532.00 347.00 L 532.00 349.00 L 534.00 351.00 L 535.00 351.00 L 536.00 352.00 L 544.00 352.00 L 545.00 351.00 L 546.00 351.00 L 549.00 348.00 L 549.00 347.00 L 550.00 346.00 L 550.00 321.00 L 547.00 321.00 L 546.00 322.00 L 545.00 322.00 L 544.00 321.00 L 543.00 321.00 L 542.00 320.00 Z M 537.00 323.00 L 543.00 323.00 L 547.00 327.00 L 547.00 336.00 L 543.00 340.00 L 542.00 340.00 L 541.00 341.00 L 539.00 341.00 L 538.00 340.00 L 537.00 340.00 L 533.00 336.00 L 533.00 333.00 L 532.00 332.00 L 532.00 331.00 L 533.00 330.00 L 533.00 328.00 L 534.00 327.00 L 534.00 326.00 Z M 458.00 322.00 L 457.00 323.00 L 457.00 325.00 L 459.00 325.00 L 460.00 324.00 L 461.00 324.00 L 462.00 323.00 L 467.00 323.00 L 470.00 326.00 L 470.00 329.00 L 469.00 330.00 L 461.00 330.00 L 460.00 331.00 L 458.00 331.00 L 455.00 334.00 L 455.00 339.00 L 458.00 342.00 L 459.00 342.00 L 460.00 343.00 L 465.00 343.00 L 466.00 342.00 L 467.00 342.00 L 468.00 341.00 L 469.00 341.00 L 471.00 343.00 L 473.00 343.00 L 473.00 325.00 L 472.00 324.00 L 472.00 323.00 L 470.00 321.00 L 468.00 321.00 L 467.00 320.00 L 462.00 320.00 L 461.00 321.00 L 460.00 321.00 L 459.00 322.00 Z M 458.00 335.00 L 460.00 333.00 L 461.00 333.00 L 462.00 332.00 L 469.00 332.00 L 470.00 333.00 L 470.00 337.00 L 466.00 341.00 L 461.00 341.00 L 458.00 338.00 Z M 1267.00 314.00 L 1267.00 319.00 L 1265.00 321.00 L 1263.00 321.00 L 1263.00 322.00 L 1264.00 323.00 L 1265.00 323.00 L 1267.00 325.00 L 1267.00 341.00 L 1268.00 342.00 L 1269.00 342.00 L 1270.00 343.00 L 1274.00 343.00 L 1275.00 342.00 L 1275.00 341.00 L 1272.00 341.00 L 1270.00 339.00 L 1270.00 330.00 L 1269.00 329.00 L 1269.00 325.00 L 1271.00 323.00 L 1274.00 323.00 L 1274.00 321.00 L 1271.00 321.00 L 1269.00 319.00 L 1269.00 314.00 Z M 1167.00 314.00 L 1167.00 319.00 L 1165.00 321.00 L 1163.00 321.00 L 1163.00 323.00 L 1166.00 323.00 L 1167.00 324.00 L 1167.00 341.00 L 1169.00 343.00 L 1174.00 343.00 L 1174.00 341.00 L 1172.00 341.00 L 1169.00 338.00 L 1169.00 324.00 L 1170.00 323.00 L 1174.00 323.00 L 1174.00 321.00 L 1171.00 321.00 L 1169.00 319.00 L 1169.00 314.00 Z M 596.00 314.00 L 595.00 315.00 L 595.00 320.00 L 594.00 321.00 L 592.00 321.00 L 592.00 323.00 L 594.00 323.00 L 595.00 324.00 L 595.00 340.00 L 598.00 343.00 L 602.00 343.00 L 603.00 342.00 L 603.00 341.00 L 601.00 341.00 L 600.00 340.00 L 599.00 340.00 L 598.00 339.00 L 598.00 324.00 L 599.00 323.00 L 602.00 323.00 L 603.00 322.00 L 603.00 321.00 L 599.00 321.00 L 598.00 320.00 L 598.00 314.00 Z M 419.00 313.00 L 419.00 342.00 L 420.00 343.00 L 422.00 343.00 L 422.00 321.00 L 423.00 320.00 L 424.00 320.00 L 426.00 322.00 L 426.00 323.00 L 428.00 325.00 L 428.00 326.00 L 429.00 327.00 L 429.00 328.00 L 431.00 330.00 L 431.00 331.00 L 433.00 333.00 L 433.00 334.00 L 435.00 336.00 L 435.00 337.00 L 437.00 339.00 L 437.00 340.00 L 440.00 343.00 L 442.00 343.00 L 442.00 337.00 L 443.00 336.00 L 443.00 335.00 L 442.00 334.00 L 442.00 327.00 L 443.00 326.00 L 443.00 325.00 L 442.00 324.00 L 442.00 313.00 L 440.00 313.00 L 440.00 335.00 L 439.00 336.00 L 438.00 336.00 L 437.00 335.00 L 437.00 334.00 L 436.00 333.00 L 436.00 332.00 L 434.00 330.00 L 434.00 329.00 L 432.00 327.00 L 432.00 326.00 L 430.00 324.00 L 430.00 323.00 L 428.00 321.00 L 428.00 320.00 L 426.00 318.00 L 426.00 317.00 L 424.00 315.00 L 424.00 314.00 L 423.00 313.00 Z M 1249.00 312.00 L 1248.00 313.00 L 1248.00 314.00 L 1249.00 315.00 L 1251.00 315.00 L 1252.00 314.00 L 1252.00 313.00 L 1251.00 312.00 Z M 515.00 312.00 L 515.00 315.00 L 516.00 316.00 L 517.00 316.00 L 517.00 315.00 L 518.00 314.00 L 518.00 313.00 L 517.00 312.00 Z M 753.00 258.00 L 753.00 259.00 L 754.00 260.00 L 927.00 260.00 L 928.00 259.00 L 928.00 258.00 L 896.00 258.00 L 895.00 257.00 L 767.00 257.00 L 766.00 258.00 Z M 996.00 175.00 L 996.00 204.00 L 1015.00 204.00 L 1015.00 202.00 L 1000.00 202.00 L 999.00 201.00 L 999.00 191.00 L 1000.00 190.00 L 1012.00 190.00 L 1013.00 189.00 L 1013.00 188.00 L 1000.00 188.00 L 999.00 187.00 L 999.00 178.00 L 1000.00 177.00 L 1014.00 177.00 L 1014.00 175.00 Z M 398.00 175.00 L 398.00 177.00 L 399.00 178.00 L 399.00 179.00 L 401.00 181.00 L 401.00 182.00 L 402.00 183.00 L 402.00 184.00 L 404.00 186.00 L 404.00 187.00 L 405.00 188.00 L 405.00 189.00 L 407.00 191.00 L 407.00 204.00 L 410.00 204.00 L 410.00 190.00 L 412.00 188.00 L 412.00 187.00 L 414.00 185.00 L 414.00 184.00 L 415.00 183.00 L 415.00 182.00 L 417.00 180.00 L 417.00 179.00 L 418.00 178.00 L 418.00 177.00 L 419.00 176.00 L 419.00 175.00 L 417.00 175.00 L 415.00 177.00 L 415.00 178.00 L 414.00 179.00 L 414.00 180.00 L 412.00 182.00 L 412.00 183.00 L 410.00 185.00 L 410.00 186.00 L 409.00 187.00 L 408.00 187.00 L 405.00 184.00 L 405.00 183.00 L 404.00 182.00 L 404.00 181.00 L 402.00 179.00 L 402.00 178.00 L 401.00 177.00 L 401.00 176.00 L 400.00 175.00 Z M 270.00 175.00 L 270.00 204.00 L 288.00 204.00 L 288.00 202.00 L 274.00 202.00 L 273.00 201.00 L 273.00 191.00 L 274.00 190.00 L 287.00 190.00 L 287.00 188.00 L 274.00 188.00 L 273.00 187.00 L 273.00 178.00 L 274.00 177.00 L 288.00 177.00 L 288.00 175.00 Z M 1486.00 174.00 L 1485.00 175.00 L 1485.00 204.00 L 1488.00 204.00 L 1488.00 186.00 L 1489.00 185.00 L 1490.00 185.00 L 1491.00 186.00 L 1491.00 187.00 L 1492.00 188.00 L 1492.00 190.00 L 1493.00 191.00 L 1493.00 192.00 L 1494.00 193.00 L 1494.00 195.00 L 1495.00 196.00 L 1495.00 197.00 L 1496.00 198.00 L 1496.00 199.00 L 1497.00 200.00 L 1497.00 202.00 L 1498.00 203.00 L 1498.00 204.00 L 1500.00 204.00 L 1501.00 203.00 L 1501.00 202.00 L 1502.00 201.00 L 1502.00 199.00 L 1503.00 198.00 L 1503.00 197.00 L 1504.00 196.00 L 1504.00 194.00 L 1505.00 193.00 L 1505.00 192.00 L 1506.00 191.00 L 1506.00 189.00 L 1507.00 188.00 L 1507.00 187.00 L 1508.00 186.00 L 1508.00 184.00 L 1509.00 183.00 L 1510.00 183.00 L 1511.00 184.00 L 1511.00 204.00 L 1513.00 204.00 L 1513.00 174.00 L 1510.00 174.00 L 1510.00 175.00 L 1509.00 176.00 L 1509.00 177.00 L 1508.00 178.00 L 1508.00 179.00 L 1507.00 180.00 L 1507.00 182.00 L 1506.00 183.00 L 1506.00 184.00 L 1505.00 185.00 L 1505.00 187.00 L 1504.00 188.00 L 1504.00 189.00 L 1503.00 190.00 L 1503.00 192.00 L 1502.00 193.00 L 1502.00 194.00 L 1501.00 195.00 L 1501.00 197.00 L 1500.00 198.00 L 1499.00 198.00 L 1497.00 196.00 L 1497.00 194.00 L 1496.00 193.00 L 1496.00 191.00 L 1495.00 190.00 L 1495.00 188.00 L 1494.00 187.00 L 1494.00 186.00 L 1493.00 185.00 L 1493.00 184.00 L 1492.00 183.00 L 1492.00 182.00 L 1491.00 181.00 L 1491.00 179.00 L 1490.00 178.00 L 1490.00 177.00 L 1489.00 176.00 L 1489.00 175.00 L 1488.00 174.00 Z M 1443.00 175.00 L 1443.00 181.00 L 1444.00 182.00 L 1444.00 197.00 L 1443.00 198.00 L 1443.00 203.00 L 1444.00 204.00 L 1446.00 204.00 L 1446.00 193.00 L 1447.00 192.00 L 1453.00 192.00 L 1455.00 194.00 L 1455.00 195.00 L 1457.00 197.00 L 1457.00 198.00 L 1458.00 199.00 L 1458.00 200.00 L 1460.00 202.00 L 1460.00 203.00 L 1461.00 204.00 L 1464.00 204.00 L 1464.00 203.00 L 1462.00 201.00 L 1462.00 200.00 L 1461.00 199.00 L 1461.00 198.00 L 1459.00 196.00 L 1459.00 195.00 L 1457.00 193.00 L 1457.00 192.00 L 1458.00 191.00 L 1459.00 191.00 L 1460.00 190.00 L 1461.00 190.00 L 1462.00 189.00 L 1462.00 188.00 L 1463.00 187.00 L 1463.00 186.00 L 1464.00 185.00 L 1464.00 182.00 L 1463.00 181.00 L 1463.00 179.00 L 1460.00 176.00 L 1459.00 176.00 L 1458.00 175.00 L 1454.00 175.00 L 1453.00 174.00 L 1451.00 174.00 L 1450.00 175.00 Z M 1446.00 178.00 L 1447.00 177.00 L 1457.00 177.00 L 1461.00 181.00 L 1461.00 185.00 L 1460.00 186.00 L 1460.00 187.00 L 1459.00 188.00 L 1458.00 188.00 L 1457.00 189.00 L 1456.00 189.00 L 1455.00 190.00 L 1447.00 190.00 L 1446.00 189.00 Z M 1407.00 174.00 L 1406.00 175.00 L 1404.00 175.00 L 1403.00 176.00 L 1402.00 176.00 L 1401.00 177.00 L 1400.00 177.00 L 1397.00 180.00 L 1397.00 181.00 L 1396.00 182.00 L 1396.00 183.00 L 1395.00 184.00 L 1395.00 186.00 L 1394.00 187.00 L 1394.00 192.00 L 1395.00 193.00 L 1395.00 195.00 L 1396.00 196.00 L 1396.00 197.00 L 1397.00 198.00 L 1397.00 199.00 L 1400.00 202.00 L 1401.00 202.00 L 1402.00 203.00 L 1403.00 203.00 L 1404.00 204.00 L 1407.00 204.00 L 1408.00 205.00 L 1410.00 205.00 L 1411.00 204.00 L 1414.00 204.00 L 1415.00 203.00 L 1416.00 203.00 L 1422.00 197.00 L 1422.00 195.00 L 1423.00 194.00 L 1423.00 184.00 L 1422.00 183.00 L 1422.00 182.00 L 1421.00 181.00 L 1421.00 180.00 L 1418.00 177.00 L 1417.00 177.00 L 1415.00 175.00 L 1412.00 175.00 L 1411.00 174.00 Z M 1405.00 177.00 L 1413.00 177.00 L 1414.00 178.00 L 1415.00 178.00 L 1419.00 182.00 L 1419.00 183.00 L 1420.00 184.00 L 1420.00 187.00 L 1421.00 188.00 L 1421.00 191.00 L 1420.00 192.00 L 1420.00 194.00 L 1419.00 195.00 L 1419.00 196.00 L 1418.00 197.00 L 1418.00 198.00 L 1416.00 200.00 L 1415.00 200.00 L 1414.00 201.00 L 1413.00 201.00 L 1412.00 202.00 L 1406.00 202.00 L 1405.00 201.00 L 1404.00 201.00 L 1403.00 200.00 L 1402.00 200.00 L 1400.00 198.00 L 1400.00 197.00 L 1398.00 195.00 L 1398.00 193.00 L 1397.00 192.00 L 1397.00 187.00 L 1398.00 186.00 L 1398.00 184.00 L 1399.00 183.00 L 1399.00 182.00 L 1403.00 178.00 L 1404.00 178.00 Z M 1375.00 174.00 L 1358.00 174.00 L 1358.00 204.00 L 1360.00 204.00 L 1360.00 192.00 L 1362.00 190.00 L 1373.00 190.00 L 1373.00 188.00 L 1361.00 188.00 L 1360.00 187.00 L 1360.00 178.00 L 1361.00 177.00 L 1375.00 177.00 L 1376.00 176.00 L 1376.00 175.00 Z M 1317.00 174.00 L 1316.00 175.00 L 1316.00 176.00 L 1317.00 177.00 L 1324.00 177.00 L 1325.00 178.00 L 1325.00 204.00 L 1328.00 204.00 L 1328.00 178.00 L 1329.00 177.00 L 1337.00 177.00 L 1337.00 175.00 L 1335.00 175.00 L 1334.00 174.00 Z M 1284.00 174.00 L 1284.00 175.00 L 1283.00 176.00 L 1283.00 178.00 L 1282.00 179.00 L 1282.00 180.00 L 1281.00 181.00 L 1281.00 183.00 L 1280.00 184.00 L 1280.00 186.00 L 1279.00 187.00 L 1279.00 188.00 L 1278.00 189.00 L 1278.00 191.00 L 1277.00 192.00 L 1277.00 193.00 L 1276.00 194.00 L 1276.00 196.00 L 1275.00 197.00 L 1275.00 198.00 L 1274.00 199.00 L 1274.00 201.00 L 1273.00 202.00 L 1273.00 204.00 L 1275.00 204.00 L 1276.00 203.00 L 1276.00 202.00 L 1277.00 201.00 L 1277.00 199.00 L 1278.00 198.00 L 1278.00 197.00 L 1279.00 196.00 L 1292.00 196.00 L 1294.00 198.00 L 1294.00 200.00 L 1295.00 201.00 L 1295.00 203.00 L 1296.00 204.00 L 1298.00 204.00 L 1298.00 201.00 L 1297.00 200.00 L 1297.00 199.00 L 1296.00 198.00 L 1296.00 196.00 L 1295.00 195.00 L 1295.00 193.00 L 1294.00 192.00 L 1294.00 191.00 L 1293.00 190.00 L 1293.00 188.00 L 1292.00 187.00 L 1292.00 186.00 L 1291.00 185.00 L 1291.00 184.00 L 1290.00 183.00 L 1290.00 181.00 L 1289.00 180.00 L 1289.00 178.00 L 1288.00 177.00 L 1288.00 176.00 L 1286.00 174.00 Z M 1285.00 179.00 L 1286.00 179.00 L 1287.00 180.00 L 1287.00 182.00 L 1288.00 183.00 L 1288.00 185.00 L 1289.00 186.00 L 1289.00 187.00 L 1290.00 188.00 L 1290.00 190.00 L 1291.00 191.00 L 1291.00 193.00 L 1290.00 194.00 L 1281.00 194.00 L 1280.00 193.00 L 1280.00 191.00 L 1281.00 190.00 L 1281.00 189.00 L 1282.00 188.00 L 1282.00 186.00 L 1283.00 185.00 L 1283.00 183.00 L 1284.00 182.00 L 1284.00 180.00 Z M 1238.00 174.00 L 1237.00 175.00 L 1237.00 204.00 L 1254.00 204.00 L 1254.00 202.00 L 1241.00 202.00 L 1239.00 200.00 L 1239.00 174.00 Z M 1210.00 175.00 L 1208.00 175.00 L 1207.00 174.00 L 1195.00 174.00 L 1195.00 204.00 L 1198.00 204.00 L 1198.00 193.00 L 1199.00 192.00 L 1209.00 192.00 L 1210.00 191.00 L 1212.00 191.00 L 1214.00 189.00 L 1214.00 188.00 L 1215.00 187.00 L 1215.00 180.00 L 1214.00 179.00 L 1214.00 178.00 L 1212.00 176.00 L 1211.00 176.00 Z M 1198.00 178.00 L 1199.00 177.00 L 1208.00 177.00 L 1209.00 178.00 L 1210.00 178.00 L 1212.00 180.00 L 1212.00 181.00 L 1213.00 182.00 L 1213.00 184.00 L 1212.00 185.00 L 1212.00 187.00 L 1211.00 188.00 L 1210.00 188.00 L 1208.00 190.00 L 1199.00 190.00 L 1198.00 189.00 Z M 1130.00 174.00 L 1129.00 175.00 L 1129.00 204.00 L 1148.00 204.00 L 1148.00 202.00 L 1133.00 202.00 L 1132.00 201.00 L 1132.00 191.00 L 1133.00 190.00 L 1145.00 190.00 L 1146.00 189.00 L 1146.00 188.00 L 1133.00 188.00 L 1132.00 187.00 L 1132.00 178.00 L 1133.00 177.00 L 1147.00 177.00 L 1147.00 175.00 L 1146.00 175.00 L 1145.00 174.00 Z M 1093.00 174.00 L 1092.00 175.00 L 1090.00 175.00 L 1089.00 176.00 L 1088.00 176.00 L 1084.00 180.00 L 1084.00 181.00 L 1082.00 183.00 L 1082.00 185.00 L 1081.00 186.00 L 1081.00 192.00 L 1082.00 193.00 L 1082.00 195.00 L 1083.00 196.00 L 1083.00 198.00 L 1088.00 203.00 L 1089.00 203.00 L 1090.00 204.00 L 1093.00 204.00 L 1094.00 205.00 L 1097.00 205.00 L 1098.00 204.00 L 1101.00 204.00 L 1102.00 203.00 L 1103.00 203.00 L 1107.00 199.00 L 1107.00 197.00 L 1106.00 196.00 L 1105.00 196.00 L 1105.00 197.00 L 1101.00 201.00 L 1099.00 201.00 L 1098.00 202.00 L 1093.00 202.00 L 1092.00 201.00 L 1091.00 201.00 L 1090.00 200.00 L 1089.00 200.00 L 1086.00 197.00 L 1086.00 196.00 L 1085.00 195.00 L 1085.00 194.00 L 1084.00 193.00 L 1084.00 187.00 L 1085.00 186.00 L 1085.00 184.00 L 1086.00 183.00 L 1086.00 182.00 L 1090.00 178.00 L 1091.00 178.00 L 1092.00 177.00 L 1099.00 177.00 L 1100.00 178.00 L 1101.00 178.00 L 1105.00 182.00 L 1107.00 182.00 L 1107.00 180.00 L 1103.00 176.00 L 1102.00 176.00 L 1101.00 175.00 L 1099.00 175.00 L 1098.00 174.00 Z M 1037.00 174.00 L 1036.00 175.00 L 1036.00 180.00 L 1037.00 181.00 L 1037.00 193.00 L 1036.00 194.00 L 1036.00 201.00 L 1037.00 202.00 L 1037.00 204.00 L 1039.00 204.00 L 1039.00 183.00 L 1040.00 182.00 L 1041.00 182.00 L 1043.00 184.00 L 1043.00 185.00 L 1045.00 187.00 L 1045.00 188.00 L 1047.00 190.00 L 1047.00 191.00 L 1049.00 193.00 L 1049.00 194.00 L 1051.00 196.00 L 1051.00 197.00 L 1053.00 199.00 L 1053.00 200.00 L 1055.00 202.00 L 1055.00 203.00 L 1056.00 204.00 L 1059.00 204.00 L 1059.00 174.00 L 1058.00 174.00 L 1057.00 175.00 L 1057.00 193.00 L 1056.00 194.00 L 1056.00 195.00 L 1055.00 196.00 L 1054.00 196.00 L 1053.00 195.00 L 1053.00 194.00 L 1051.00 192.00 L 1051.00 191.00 L 1048.00 188.00 L 1048.00 187.00 L 1047.00 186.00 L 1047.00 185.00 L 1045.00 183.00 L 1045.00 182.00 L 1043.00 180.00 L 1043.00 179.00 L 1041.00 177.00 L 1041.00 176.00 L 1039.00 174.00 Z M 959.00 174.00 L 958.00 175.00 L 956.00 175.00 L 955.00 176.00 L 954.00 176.00 L 950.00 180.00 L 950.00 181.00 L 949.00 182.00 L 949.00 183.00 L 948.00 184.00 L 948.00 195.00 L 949.00 196.00 L 949.00 197.00 L 950.00 198.00 L 950.00 199.00 L 953.00 202.00 L 954.00 202.00 L 955.00 203.00 L 956.00 203.00 L 957.00 204.00 L 960.00 204.00 L 961.00 205.00 L 962.00 205.00 L 963.00 204.00 L 967.00 204.00 L 969.00 202.00 L 970.00 202.00 L 971.00 201.00 L 974.00 201.00 L 974.00 190.00 L 973.00 189.00 L 964.00 189.00 L 964.00 191.00 L 970.00 191.00 L 972.00 193.00 L 972.00 195.00 L 971.00 196.00 L 971.00 197.00 L 967.00 201.00 L 966.00 201.00 L 965.00 202.00 L 959.00 202.00 L 958.00 201.00 L 957.00 201.00 L 956.00 200.00 L 955.00 200.00 L 953.00 198.00 L 953.00 197.00 L 951.00 195.00 L 951.00 193.00 L 950.00 192.00 L 950.00 187.00 L 951.00 186.00 L 951.00 184.00 L 952.00 183.00 L 952.00 182.00 L 956.00 178.00 L 957.00 178.00 L 958.00 177.00 L 965.00 177.00 L 966.00 178.00 L 967.00 178.00 L 971.00 182.00 L 973.00 182.00 L 973.00 180.00 L 972.00 179.00 L 972.00 178.00 L 971.00 177.00 L 970.00 177.00 L 968.00 175.00 L 965.00 175.00 L 964.00 174.00 Z M 924.00 174.00 L 923.00 175.00 L 923.00 204.00 L 926.00 204.00 L 926.00 175.00 L 925.00 174.00 Z M 886.00 174.00 L 886.00 204.00 L 902.00 204.00 L 902.00 202.00 L 890.00 202.00 L 888.00 200.00 L 888.00 175.00 L 887.00 174.00 Z M 849.00 174.00 L 848.00 175.00 L 848.00 204.00 L 865.00 204.00 L 865.00 202.00 L 852.00 202.00 L 851.00 201.00 L 851.00 174.00 Z M 809.00 174.00 L 808.00 175.00 L 808.00 203.00 L 809.00 204.00 L 827.00 204.00 L 827.00 202.00 L 812.00 202.00 L 811.00 201.00 L 811.00 191.00 L 812.00 190.00 L 825.00 190.00 L 825.00 188.00 L 813.00 188.00 L 811.00 186.00 L 811.00 178.00 L 812.00 177.00 L 827.00 177.00 L 827.00 175.00 L 824.00 175.00 L 823.00 174.00 Z M 767.00 174.00 L 766.00 175.00 L 766.00 176.00 L 767.00 177.00 L 774.00 177.00 L 775.00 178.00 L 775.00 204.00 L 778.00 204.00 L 778.00 202.00 L 779.00 201.00 L 779.00 199.00 L 778.00 198.00 L 778.00 178.00 L 779.00 177.00 L 787.00 177.00 L 788.00 176.00 L 788.00 175.00 L 787.00 174.00 Z M 745.00 174.00 L 744.00 174.00 L 743.00 175.00 L 743.00 195.00 L 742.00 196.00 L 741.00 196.00 L 738.00 193.00 L 738.00 192.00 L 736.00 190.00 L 736.00 189.00 L 734.00 187.00 L 734.00 186.00 L 732.00 184.00 L 732.00 183.00 L 729.00 180.00 L 729.00 179.00 L 727.00 177.00 L 727.00 176.00 L 726.00 175.00 L 723.00 175.00 L 723.00 204.00 L 725.00 204.00 L 725.00 182.00 L 726.00 181.00 L 727.00 181.00 L 728.00 182.00 L 728.00 183.00 L 730.00 185.00 L 730.00 186.00 L 733.00 189.00 L 733.00 190.00 L 735.00 192.00 L 735.00 193.00 L 737.00 195.00 L 737.00 196.00 L 740.00 199.00 L 740.00 200.00 L 742.00 202.00 L 742.00 203.00 L 743.00 204.00 L 746.00 204.00 L 746.00 175.00 Z M 698.00 174.00 L 697.00 175.00 L 697.00 204.00 L 700.00 204.00 L 700.00 174.00 Z M 636.00 174.00 L 635.00 175.00 L 633.00 175.00 L 629.00 179.00 L 629.00 185.00 L 632.00 188.00 L 633.00 188.00 L 634.00 189.00 L 636.00 189.00 L 637.00 190.00 L 640.00 190.00 L 641.00 191.00 L 642.00 191.00 L 646.00 195.00 L 646.00 198.00 L 643.00 201.00 L 642.00 201.00 L 641.00 202.00 L 636.00 202.00 L 635.00 201.00 L 634.00 201.00 L 631.00 198.00 L 631.00 197.00 L 628.00 197.00 L 628.00 198.00 L 629.00 199.00 L 629.00 200.00 L 632.00 203.00 L 633.00 203.00 L 634.00 204.00 L 636.00 204.00 L 637.00 205.00 L 639.00 205.00 L 640.00 204.00 L 643.00 204.00 L 644.00 203.00 L 645.00 203.00 L 648.00 200.00 L 648.00 199.00 L 649.00 198.00 L 649.00 194.00 L 648.00 193.00 L 648.00 192.00 L 646.00 190.00 L 645.00 190.00 L 644.00 189.00 L 642.00 189.00 L 641.00 188.00 L 639.00 188.00 L 638.00 187.00 L 636.00 187.00 L 635.00 186.00 L 634.00 186.00 L 632.00 184.00 L 632.00 180.00 L 635.00 177.00 L 637.00 177.00 L 638.00 176.00 L 639.00 176.00 L 640.00 177.00 L 642.00 177.00 L 645.00 180.00 L 645.00 181.00 L 648.00 181.00 L 648.00 179.00 L 644.00 175.00 L 642.00 175.00 L 641.00 174.00 Z M 590.00 174.00 L 589.00 175.00 L 589.00 204.00 L 608.00 204.00 L 608.00 202.00 L 593.00 202.00 L 592.00 201.00 L 592.00 191.00 L 593.00 190.00 L 606.00 190.00 L 606.00 188.00 L 594.00 188.00 L 592.00 186.00 L 592.00 178.00 L 593.00 177.00 L 607.00 177.00 L 608.00 176.00 L 608.00 175.00 L 596.00 175.00 L 595.00 174.00 Z M 553.00 174.00 L 552.00 175.00 L 552.00 204.00 L 569.00 204.00 L 569.00 202.00 L 556.00 202.00 L 555.00 201.00 L 555.00 174.00 Z M 518.00 174.00 L 517.00 175.00 L 517.00 176.00 L 516.00 177.00 L 516.00 179.00 L 515.00 180.00 L 515.00 182.00 L 514.00 183.00 L 514.00 185.00 L 513.00 186.00 L 513.00 187.00 L 512.00 188.00 L 512.00 190.00 L 511.00 191.00 L 511.00 192.00 L 510.00 193.00 L 510.00 195.00 L 509.00 196.00 L 509.00 197.00 L 508.00 198.00 L 508.00 199.00 L 507.00 200.00 L 507.00 202.00 L 506.00 203.00 L 506.00 204.00 L 509.00 204.00 L 509.00 203.00 L 510.00 202.00 L 510.00 200.00 L 511.00 199.00 L 511.00 198.00 L 513.00 196.00 L 525.00 196.00 L 527.00 198.00 L 527.00 199.00 L 528.00 200.00 L 528.00 201.00 L 529.00 202.00 L 529.00 204.00 L 532.00 204.00 L 532.00 203.00 L 531.00 202.00 L 531.00 201.00 L 530.00 200.00 L 530.00 198.00 L 529.00 197.00 L 529.00 195.00 L 528.00 194.00 L 528.00 192.00 L 527.00 191.00 L 527.00 190.00 L 526.00 189.00 L 526.00 188.00 L 525.00 187.00 L 525.00 185.00 L 524.00 184.00 L 524.00 183.00 L 523.00 182.00 L 523.00 180.00 L 522.00 179.00 L 522.00 177.00 L 521.00 176.00 L 521.00 175.00 L 520.00 174.00 Z M 518.00 181.00 L 520.00 181.00 L 521.00 182.00 L 521.00 183.00 L 522.00 184.00 L 522.00 186.00 L 523.00 187.00 L 523.00 189.00 L 524.00 190.00 L 524.00 193.00 L 523.00 194.00 L 514.00 194.00 L 513.00 193.00 L 513.00 192.00 L 514.00 191.00 L 514.00 190.00 L 515.00 189.00 L 515.00 187.00 L 516.00 186.00 L 516.00 184.00 L 517.00 183.00 L 517.00 182.00 Z M 474.00 174.00 L 473.00 175.00 L 472.00 175.00 L 471.00 176.00 L 470.00 176.00 L 467.00 179.00 L 467.00 184.00 L 468.00 185.00 L 468.00 186.00 L 470.00 188.00 L 471.00 188.00 L 472.00 189.00 L 474.00 189.00 L 475.00 190.00 L 478.00 190.00 L 479.00 191.00 L 480.00 191.00 L 481.00 192.00 L 482.00 192.00 L 484.00 194.00 L 484.00 198.00 L 483.00 199.00 L 483.00 200.00 L 482.00 201.00 L 481.00 201.00 L 480.00 202.00 L 474.00 202.00 L 473.00 201.00 L 472.00 201.00 L 470.00 199.00 L 470.00 198.00 L 469.00 197.00 L 467.00 197.00 L 467.00 200.00 L 470.00 203.00 L 471.00 203.00 L 472.00 204.00 L 475.00 204.00 L 476.00 205.00 L 478.00 205.00 L 479.00 204.00 L 482.00 204.00 L 484.00 202.00 L 485.00 202.00 L 486.00 201.00 L 486.00 200.00 L 487.00 199.00 L 487.00 194.00 L 486.00 193.00 L 486.00 192.00 L 484.00 190.00 L 483.00 190.00 L 482.00 189.00 L 481.00 189.00 L 480.00 188.00 L 478.00 188.00 L 477.00 187.00 L 474.00 187.00 L 473.00 186.00 L 472.00 186.00 L 471.00 185.00 L 471.00 184.00 L 470.00 183.00 L 470.00 180.00 L 473.00 177.00 L 480.00 177.00 L 484.00 181.00 L 486.00 181.00 L 486.00 179.00 L 482.00 175.00 L 480.00 175.00 L 479.00 174.00 Z M 367.00 174.00 L 363.00 174.00 L 362.00 175.00 L 360.00 175.00 L 359.00 176.00 L 358.00 176.00 L 357.00 177.00 L 356.00 177.00 L 354.00 179.00 L 354.00 180.00 L 353.00 181.00 L 353.00 182.00 L 352.00 183.00 L 352.00 185.00 L 351.00 186.00 L 351.00 193.00 L 352.00 194.00 L 352.00 196.00 L 353.00 197.00 L 353.00 198.00 L 354.00 199.00 L 354.00 200.00 L 356.00 202.00 L 357.00 202.00 L 358.00 203.00 L 359.00 203.00 L 360.00 204.00 L 363.00 204.00 L 364.00 205.00 L 365.00 205.00 L 366.00 204.00 L 370.00 204.00 L 371.00 203.00 L 372.00 203.00 L 374.00 201.00 L 377.00 201.00 L 377.00 189.00 L 369.00 189.00 L 368.00 190.00 L 366.00 190.00 L 366.00 191.00 L 373.00 191.00 L 374.00 192.00 L 374.00 197.00 L 370.00 201.00 L 369.00 201.00 L 368.00 202.00 L 362.00 202.00 L 361.00 201.00 L 360.00 201.00 L 355.00 196.00 L 355.00 195.00 L 354.00 194.00 L 354.00 192.00 L 353.00 191.00 L 353.00 188.00 L 354.00 187.00 L 354.00 184.00 L 355.00 183.00 L 355.00 182.00 L 358.00 179.00 L 359.00 179.00 L 361.00 177.00 L 368.00 177.00 L 369.00 178.00 L 370.00 178.00 L 371.00 179.00 L 372.00 179.00 L 373.00 180.00 L 373.00 181.00 L 374.00 182.00 L 376.00 182.00 L 376.00 180.00 L 375.00 179.00 L 375.00 178.00 L 373.00 176.00 L 372.00 176.00 L 371.00 175.00 L 368.00 175.00 Z M 311.00 174.00 L 310.00 175.00 L 310.00 204.00 L 313.00 204.00 L 313.00 193.00 L 314.00 192.00 L 320.00 192.00 L 322.00 194.00 L 322.00 195.00 L 324.00 197.00 L 324.00 198.00 L 326.00 200.00 L 326.00 201.00 L 327.00 202.00 L 327.00 203.00 L 328.00 204.00 L 331.00 204.00 L 331.00 203.00 L 330.00 202.00 L 330.00 201.00 L 328.00 199.00 L 328.00 198.00 L 327.00 197.00 L 327.00 196.00 L 324.00 193.00 L 324.00 192.00 L 325.00 191.00 L 326.00 191.00 L 327.00 190.00 L 328.00 190.00 L 330.00 188.00 L 330.00 187.00 L 331.00 186.00 L 331.00 181.00 L 330.00 180.00 L 330.00 179.00 L 326.00 175.00 L 323.00 175.00 L 322.00 174.00 Z M 313.00 178.00 L 314.00 177.00 L 324.00 177.00 L 328.00 181.00 L 328.00 185.00 L 327.00 186.00 L 327.00 187.00 L 325.00 189.00 L 321.00 189.00 L 320.00 190.00 L 315.00 190.00 L 313.00 188.00 Z M 225.00 174.00 L 225.00 204.00 L 227.00 204.00 L 227.00 182.00 L 228.00 181.00 L 229.00 181.00 L 230.00 182.00 L 230.00 183.00 L 232.00 185.00 L 232.00 186.00 L 234.00 188.00 L 234.00 189.00 L 236.00 191.00 L 236.00 192.00 L 238.00 194.00 L 238.00 195.00 L 240.00 197.00 L 240.00 198.00 L 242.00 200.00 L 242.00 201.00 L 244.00 203.00 L 244.00 204.00 L 247.00 204.00 L 247.00 174.00 L 245.00 174.00 L 245.00 196.00 L 244.00 197.00 L 243.00 197.00 L 242.00 196.00 L 242.00 195.00 L 240.00 193.00 L 240.00 192.00 L 238.00 190.00 L 238.00 189.00 L 236.00 187.00 L 236.00 186.00 L 234.00 184.00 L 234.00 183.00 L 232.00 181.00 L 232.00 180.00 L 230.00 178.00 L 230.00 177.00 L 227.00 174.00 Z M 184.00 174.00 L 184.00 204.00 L 203.00 204.00 L 203.00 202.00 L 188.00 202.00 L 187.00 201.00 L 187.00 191.00 L 188.00 190.00 L 201.00 190.00 L 201.00 188.00 L 188.00 188.00 L 187.00 187.00 L 187.00 178.00 L 188.00 177.00 L 202.00 177.00 L 202.00 175.00 L 196.00 175.00 L 195.00 174.00 Z M 331.00 104.00 L 331.00 109.00 L 334.00 112.00 L 410.00 112.00 L 413.00 109.00 L 413.00 104.00 L 411.00 102.00 L 410.00 102.00 L 409.00 101.00 L 335.00 101.00 L 334.00 102.00 L 333.00 102.00 Z M 18.00 104.00 L 18.00 110.00 L 19.00 111.00 L 20.00 111.00 L 21.00 112.00 L 98.00 112.00 L 101.00 109.00 L 101.00 104.00 L 99.00 102.00 L 98.00 102.00 L 97.00 101.00 L 21.00 101.00 Z M 699.00 64.00 L 699.00 65.00 L 698.00 66.00 L 698.00 68.00 L 699.00 69.00 L 699.00 71.00 L 701.00 73.00 L 731.00 73.00 L 733.00 75.00 L 733.00 91.00 L 736.00 94.00 L 737.00 94.00 L 738.00 95.00 L 741.00 95.00 L 743.00 93.00 L 743.00 92.00 L 744.00 91.00 L 744.00 66.00 L 740.00 62.00 L 702.00 62.00 L 701.00 63.00 L 700.00 63.00 Z M 331.00 63.00 L 331.00 69.00 L 333.00 71.00 L 334.00 71.00 L 335.00 72.00 L 347.00 72.00 L 348.00 71.00 L 355.00 71.00 L 356.00 72.00 L 408.00 72.00 L 409.00 71.00 L 410.00 71.00 L 411.00 70.00 L 412.00 70.00 L 412.00 69.00 L 413.00 68.00 L 413.00 64.00 L 412.00 63.00 L 412.00 62.00 L 411.00 62.00 L 410.00 61.00 L 409.00 61.00 L 408.00 60.00 L 336.00 60.00 L 335.00 61.00 L 333.00 61.00 Z M 18.00 63.00 L 18.00 69.00 L 20.00 71.00 L 21.00 71.00 L 22.00 72.00 L 34.00 72.00 L 35.00 71.00 L 40.00 71.00 L 41.00 72.00 L 75.00 72.00 L 76.00 71.00 L 98.00 71.00 L 99.00 70.00 L 100.00 70.00 L 100.00 69.00 L 101.00 68.00 L 101.00 64.00 L 100.00 63.00 L 100.00 62.00 L 99.00 62.00 L 98.00 61.00 L 97.00 61.00 L 96.00 60.00 L 23.00 60.00 L 22.00 61.00 L 21.00 61.00 L 20.00 62.00 L 19.00 62.00 Z M 651.00 53.00 L 651.00 55.00 L 650.00 56.00 L 650.00 76.00 L 651.00 77.00 L 651.00 80.00 L 652.00 81.00 L 652.00 83.00 L 653.00 84.00 L 653.00 85.00 L 654.00 86.00 L 654.00 87.00 L 655.00 88.00 L 655.00 89.00 L 656.00 90.00 L 656.00 91.00 L 658.00 93.00 L 658.00 94.00 L 660.00 96.00 L 660.00 97.00 L 665.00 102.00 L 666.00 102.00 L 669.00 105.00 L 670.00 105.00 L 672.00 107.00 L 673.00 107.00 L 674.00 108.00 L 675.00 108.00 L 676.00 109.00 L 677.00 109.00 L 678.00 110.00 L 679.00 110.00 L 680.00 111.00 L 682.00 111.00 L 683.00 112.00 L 685.00 112.00 L 686.00 113.00 L 690.00 113.00 L 691.00 114.00 L 710.00 114.00 L 711.00 113.00 L 715.00 113.00 L 716.00 112.00 L 719.00 112.00 L 720.00 111.00 L 722.00 111.00 L 723.00 110.00 L 724.00 110.00 L 725.00 109.00 L 726.00 109.00 L 727.00 108.00 L 728.00 108.00 L 729.00 107.00 L 730.00 107.00 L 732.00 105.00 L 732.00 104.00 L 726.00 98.00 L 723.00 98.00 L 722.00 99.00 L 721.00 99.00 L 720.00 100.00 L 718.00 100.00 L 717.00 101.00 L 715.00 101.00 L 714.00 102.00 L 711.00 102.00 L 710.00 103.00 L 705.00 103.00 L 704.00 104.00 L 697.00 104.00 L 696.00 103.00 L 691.00 103.00 L 690.00 102.00 L 688.00 102.00 L 687.00 101.00 L 685.00 101.00 L 684.00 100.00 L 683.00 100.00 L 682.00 99.00 L 681.00 99.00 L 680.00 98.00 L 679.00 98.00 L 678.00 97.00 L 677.00 97.00 L 672.00 92.00 L 671.00 92.00 L 670.00 91.00 L 670.00 90.00 L 667.00 87.00 L 667.00 86.00 L 665.00 84.00 L 665.00 83.00 L 664.00 82.00 L 664.00 81.00 L 663.00 80.00 L 663.00 79.00 L 662.00 78.00 L 662.00 76.00 L 661.00 75.00 L 661.00 69.00 L 660.00 68.00 L 660.00 57.00 L 658.00 55.00 L 657.00 55.00 L 656.00 54.00 L 654.00 54.00 L 653.00 53.00 Z M 1531.00 20.00 L 1530.00 21.00 L 1529.00 21.00 L 1529.00 22.00 L 1528.00 23.00 L 1528.00 28.00 L 1530.00 30.00 L 1531.00 30.00 L 1532.00 31.00 L 1564.00 31.00 L 1565.00 32.00 L 1565.00 110.00 L 1568.00 113.00 L 1573.00 113.00 L 1576.00 110.00 L 1576.00 37.00 L 1577.00 36.00 L 1577.00 32.00 L 1578.00 31.00 L 1613.00 31.00 L 1616.00 28.00 L 1616.00 27.00 L 1617.00 26.00 L 1617.00 24.00 L 1616.00 23.00 L 1616.00 22.00 L 1614.00 20.00 Z M 1238.00 20.00 L 1236.00 22.00 L 1236.00 23.00 L 1235.00 24.00 L 1235.00 110.00 L 1237.00 112.00 L 1308.00 112.00 L 1310.00 110.00 L 1310.00 109.00 L 1311.00 108.00 L 1311.00 105.00 L 1308.00 102.00 L 1307.00 102.00 L 1306.00 101.00 L 1248.00 101.00 L 1247.00 100.00 L 1247.00 24.00 L 1246.00 23.00 L 1246.00 22.00 L 1244.00 20.00 Z M 1147.00 20.00 L 1144.00 23.00 L 1144.00 110.00 L 1146.00 112.00 L 1147.00 112.00 L 1148.00 113.00 L 1151.00 113.00 L 1152.00 112.00 L 1153.00 112.00 L 1155.00 110.00 L 1155.00 23.00 L 1152.00 20.00 Z M 1061.00 24.00 L 1060.00 24.00 L 1058.00 22.00 L 1056.00 22.00 L 1055.00 21.00 L 1054.00 21.00 L 1053.00 20.00 L 990.00 20.00 L 987.00 23.00 L 987.00 27.00 L 988.00 28.00 L 988.00 29.00 L 989.00 30.00 L 990.00 30.00 L 991.00 31.00 L 1049.00 31.00 L 1050.00 32.00 L 1052.00 32.00 L 1053.00 33.00 L 1054.00 33.00 L 1058.00 37.00 L 1058.00 38.00 L 1059.00 39.00 L 1059.00 41.00 L 1060.00 42.00 L 1060.00 52.00 L 1059.00 53.00 L 1059.00 55.00 L 1058.00 56.00 L 1058.00 57.00 L 1053.00 62.00 L 1052.00 62.00 L 1051.00 63.00 L 1049.00 63.00 L 1048.00 64.00 L 991.00 64.00 L 990.00 65.00 L 989.00 65.00 L 988.00 66.00 L 988.00 67.00 L 987.00 68.00 L 987.00 110.00 L 988.00 111.00 L 988.00 112.00 L 989.00 112.00 L 990.00 113.00 L 994.00 113.00 L 995.00 112.00 L 996.00 112.00 L 997.00 111.00 L 997.00 109.00 L 998.00 108.00 L 998.00 75.00 L 999.00 74.00 L 1052.00 74.00 L 1053.00 73.00 L 1055.00 73.00 L 1056.00 72.00 L 1057.00 72.00 L 1058.00 71.00 L 1059.00 71.00 L 1062.00 68.00 L 1063.00 68.00 L 1065.00 66.00 L 1065.00 65.00 L 1067.00 63.00 L 1067.00 62.00 L 1068.00 61.00 L 1068.00 60.00 L 1069.00 59.00 L 1069.00 58.00 L 1070.00 57.00 L 1070.00 55.00 L 1071.00 54.00 L 1071.00 40.00 L 1070.00 39.00 L 1070.00 37.00 L 1069.00 36.00 L 1069.00 34.00 L 1068.00 33.00 L 1068.00 32.00 L 1066.00 30.00 L 1066.00 29.00 Z M 821.00 20.00 L 820.00 21.00 L 819.00 21.00 L 819.00 22.00 L 818.00 23.00 L 818.00 28.00 L 825.00 35.00 L 825.00 36.00 L 833.00 44.00 L 833.00 45.00 L 839.00 51.00 L 839.00 52.00 L 846.00 59.00 L 846.00 60.00 L 852.00 66.00 L 852.00 67.00 L 856.00 71.00 L 856.00 109.00 L 857.00 110.00 L 857.00 111.00 L 859.00 113.00 L 865.00 113.00 L 867.00 111.00 L 867.00 73.00 L 868.00 72.00 L 868.00 71.00 L 875.00 64.00 L 875.00 63.00 L 884.00 54.00 L 884.00 53.00 L 892.00 45.00 L 892.00 44.00 L 901.00 35.00 L 901.00 34.00 L 907.00 28.00 L 907.00 27.00 L 908.00 26.00 L 908.00 24.00 L 907.00 23.00 L 907.00 22.00 L 905.00 20.00 L 899.00 20.00 L 893.00 26.00 L 893.00 27.00 L 885.00 35.00 L 885.00 36.00 L 878.00 43.00 L 878.00 44.00 L 870.00 52.00 L 870.00 53.00 L 864.00 59.00 L 864.00 60.00 L 863.00 61.00 L 862.00 61.00 L 857.00 56.00 L 857.00 55.00 L 851.00 49.00 L 851.00 48.00 L 844.00 41.00 L 844.00 40.00 L 837.00 33.00 L 837.00 32.00 L 832.00 27.00 L 832.00 26.00 L 826.00 20.00 Z M 492.00 20.00 L 489.00 23.00 L 489.00 28.00 L 491.00 30.00 L 492.00 30.00 L 493.00 31.00 L 553.00 31.00 L 554.00 32.00 L 555.00 32.00 L 556.00 33.00 L 557.00 33.00 L 562.00 38.00 L 562.00 39.00 L 563.00 40.00 L 563.00 41.00 L 564.00 42.00 L 564.00 52.00 L 563.00 53.00 L 563.00 55.00 L 561.00 57.00 L 561.00 58.00 L 558.00 61.00 L 557.00 61.00 L 556.00 62.00 L 555.00 62.00 L 554.00 63.00 L 553.00 63.00 L 552.00 64.00 L 493.00 64.00 L 490.00 67.00 L 490.00 68.00 L 489.00 69.00 L 489.00 109.00 L 490.00 110.00 L 490.00 111.00 L 491.00 112.00 L 492.00 112.00 L 493.00 113.00 L 497.00 113.00 L 500.00 110.00 L 500.00 76.00 L 502.00 74.00 L 537.00 74.00 L 542.00 79.00 L 542.00 80.00 L 545.00 83.00 L 545.00 84.00 L 548.00 87.00 L 548.00 88.00 L 551.00 91.00 L 551.00 92.00 L 554.00 95.00 L 554.00 96.00 L 556.00 98.00 L 556.00 99.00 L 560.00 103.00 L 560.00 104.00 L 562.00 106.00 L 562.00 107.00 L 564.00 109.00 L 564.00 110.00 L 566.00 112.00 L 567.00 112.00 L 568.00 113.00 L 572.00 113.00 L 575.00 110.00 L 575.00 109.00 L 576.00 108.00 L 576.00 107.00 L 575.00 106.00 L 575.00 105.00 L 573.00 103.00 L 573.00 102.00 L 569.00 98.00 L 569.00 97.00 L 566.00 94.00 L 566.00 93.00 L 564.00 91.00 L 564.00 90.00 L 561.00 87.00 L 561.00 86.00 L 558.00 83.00 L 558.00 82.00 L 555.00 79.00 L 555.00 78.00 L 553.00 76.00 L 553.00 75.00 L 554.00 74.00 L 556.00 74.00 L 557.00 73.00 L 559.00 73.00 L 560.00 72.00 L 561.00 72.00 L 562.00 71.00 L 563.00 71.00 L 565.00 69.00 L 566.00 69.00 L 569.00 66.00 L 569.00 65.00 L 571.00 63.00 L 571.00 62.00 L 573.00 60.00 L 573.00 58.00 L 574.00 57.00 L 574.00 55.00 L 575.00 54.00 L 575.00 40.00 L 574.00 39.00 L 574.00 37.00 L 573.00 36.00 L 573.00 34.00 L 571.00 32.00 L 571.00 31.00 L 569.00 29.00 L 569.00 28.00 L 566.00 25.00 L 565.00 25.00 L 563.00 23.00 L 562.00 23.00 L 561.00 22.00 L 560.00 22.00 L 559.00 21.00 L 557.00 21.00 L 556.00 20.00 Z M 331.00 23.00 L 331.00 28.00 L 334.00 31.00 L 410.00 31.00 L 413.00 28.00 L 413.00 23.00 L 410.00 20.00 L 334.00 20.00 Z M 170.00 21.00 L 169.00 22.00 L 169.00 23.00 L 168.00 24.00 L 168.00 109.00 L 172.00 113.00 L 176.00 113.00 L 177.00 112.00 L 178.00 112.00 L 179.00 111.00 L 179.00 110.00 L 180.00 109.00 L 180.00 42.00 L 181.00 41.00 L 182.00 41.00 L 183.00 42.00 L 183.00 43.00 L 184.00 43.00 L 186.00 45.00 L 186.00 46.00 L 198.00 58.00 L 198.00 59.00 L 207.00 68.00 L 207.00 69.00 L 218.00 80.00 L 218.00 81.00 L 226.00 89.00 L 226.00 90.00 L 235.00 99.00 L 235.00 100.00 L 244.00 109.00 L 244.00 110.00 L 246.00 112.00 L 247.00 112.00 L 248.00 113.00 L 253.00 113.00 L 255.00 111.00 L 255.00 109.00 L 256.00 108.00 L 256.00 104.00 L 255.00 103.00 L 255.00 102.00 L 256.00 101.00 L 256.00 98.00 L 255.00 97.00 L 255.00 71.00 L 256.00 70.00 L 256.00 66.00 L 255.00 65.00 L 255.00 38.00 L 256.00 37.00 L 256.00 30.00 L 255.00 29.00 L 255.00 22.00 L 253.00 20.00 L 247.00 20.00 L 245.00 22.00 L 245.00 23.00 L 244.00 24.00 L 244.00 89.00 L 243.00 90.00 L 242.00 90.00 L 240.00 88.00 L 240.00 87.00 L 228.00 75.00 L 228.00 74.00 L 219.00 65.00 L 219.00 64.00 L 210.00 55.00 L 210.00 54.00 L 197.00 41.00 L 197.00 40.00 L 183.00 26.00 L 183.00 25.00 L 179.00 21.00 L 178.00 21.00 L 177.00 20.00 L 172.00 20.00 L 171.00 21.00 Z M 18.00 22.00 L 18.00 28.00 L 21.00 31.00 L 97.00 31.00 L 98.00 30.00 L 99.00 30.00 L 101.00 28.00 L 101.00 23.00 L 98.00 20.00 L 20.00 20.00 Z M 660.00 39.00 L 661.00 40.00 L 662.00 40.00 L 664.00 42.00 L 665.00 42.00 L 666.00 43.00 L 669.00 43.00 L 672.00 40.00 L 673.00 40.00 L 676.00 37.00 L 677.00 37.00 L 679.00 35.00 L 680.00 35.00 L 681.00 34.00 L 683.00 34.00 L 684.00 33.00 L 686.00 33.00 L 687.00 32.00 L 689.00 32.00 L 690.00 31.00 L 696.00 31.00 L 697.00 30.00 L 707.00 30.00 L 708.00 31.00 L 717.00 31.00 L 718.00 32.00 L 722.00 32.00 L 723.00 33.00 L 726.00 33.00 L 727.00 34.00 L 729.00 34.00 L 730.00 35.00 L 732.00 35.00 L 733.00 34.00 L 734.00 34.00 L 737.00 31.00 L 737.00 27.00 L 736.00 26.00 L 736.00 25.00 L 735.00 24.00 L 734.00 24.00 L 733.00 23.00 L 731.00 23.00 L 730.00 22.00 L 727.00 22.00 L 726.00 21.00 L 722.00 21.00 L 721.00 20.00 L 715.00 20.00 L 714.00 19.00 L 691.00 19.00 L 690.00 20.00 L 687.00 20.00 L 686.00 21.00 L 683.00 21.00 L 682.00 22.00 L 680.00 22.00 L 679.00 23.00 L 678.00 23.00 L 677.00 24.00 L 676.00 24.00 L 675.00 25.00 L 674.00 25.00 L 673.00 26.00 L 672.00 26.00 L 670.00 28.00 L 669.00 28.00 L 660.00 37.00 Z M 1406.00 19.00 L 1405.00 20.00 L 1403.00 20.00 L 1402.00 21.00 L 1400.00 21.00 L 1399.00 22.00 L 1398.00 22.00 L 1397.00 23.00 L 1396.00 23.00 L 1395.00 24.00 L 1394.00 24.00 L 1393.00 25.00 L 1392.00 25.00 L 1389.00 28.00 L 1388.00 28.00 L 1378.00 38.00 L 1378.00 39.00 L 1376.00 41.00 L 1376.00 42.00 L 1375.00 43.00 L 1375.00 44.00 L 1374.00 45.00 L 1374.00 46.00 L 1373.00 47.00 L 1373.00 48.00 L 1372.00 49.00 L 1372.00 50.00 L 1371.00 51.00 L 1371.00 54.00 L 1370.00 55.00 L 1370.00 58.00 L 1369.00 59.00 L 1369.00 75.00 L 1370.00 76.00 L 1370.00 79.00 L 1371.00 80.00 L 1371.00 83.00 L 1372.00 84.00 L 1372.00 85.00 L 1373.00 86.00 L 1373.00 87.00 L 1374.00 88.00 L 1374.00 89.00 L 1375.00 90.00 L 1375.00 91.00 L 1376.00 92.00 L 1376.00 93.00 L 1380.00 97.00 L 1380.00 98.00 L 1386.00 104.00 L 1387.00 104.00 L 1390.00 107.00 L 1391.00 107.00 L 1392.00 108.00 L 1393.00 108.00 L 1394.00 109.00 L 1395.00 109.00 L 1396.00 110.00 L 1397.00 110.00 L 1398.00 111.00 L 1399.00 111.00 L 1400.00 112.00 L 1402.00 112.00 L 1403.00 113.00 L 1406.00 113.00 L 1407.00 114.00 L 1412.00 114.00 L 1413.00 115.00 L 1422.00 115.00 L 1423.00 114.00 L 1429.00 114.00 L 1430.00 113.00 L 1432.00 113.00 L 1433.00 112.00 L 1436.00 112.00 L 1437.00 111.00 L 1438.00 111.00 L 1439.00 110.00 L 1440.00 110.00 L 1441.00 109.00 L 1442.00 109.00 L 1443.00 108.00 L 1444.00 108.00 L 1445.00 107.00 L 1446.00 107.00 L 1450.00 103.00 L 1451.00 103.00 L 1457.00 97.00 L 1457.00 96.00 L 1460.00 93.00 L 1460.00 92.00 L 1462.00 90.00 L 1462.00 89.00 L 1463.00 88.00 L 1463.00 87.00 L 1464.00 86.00 L 1464.00 84.00 L 1465.00 83.00 L 1465.00 81.00 L 1466.00 80.00 L 1466.00 78.00 L 1467.00 77.00 L 1467.00 72.00 L 1468.00 71.00 L 1468.00 61.00 L 1467.00 60.00 L 1467.00 56.00 L 1466.00 55.00 L 1466.00 52.00 L 1465.00 51.00 L 1465.00 49.00 L 1464.00 48.00 L 1464.00 47.00 L 1463.00 46.00 L 1463.00 45.00 L 1462.00 44.00 L 1462.00 43.00 L 1461.00 42.00 L 1461.00 41.00 L 1459.00 39.00 L 1459.00 38.00 L 1448.00 27.00 L 1447.00 27.00 L 1445.00 25.00 L 1444.00 25.00 L 1443.00 24.00 L 1442.00 24.00 L 1441.00 23.00 L 1440.00 23.00 L 1439.00 22.00 L 1438.00 22.00 L 1437.00 21.00 L 1435.00 21.00 L 1434.00 20.00 L 1431.00 20.00 L 1430.00 19.00 L 1426.00 19.00 L 1425.00 18.00 L 1411.00 18.00 L 1410.00 19.00 Z M 1410.00 30.00 L 1426.00 30.00 L 1427.00 31.00 L 1430.00 31.00 L 1431.00 32.00 L 1433.00 32.00 L 1434.00 33.00 L 1435.00 33.00 L 1436.00 34.00 L 1437.00 34.00 L 1438.00 35.00 L 1439.00 35.00 L 1441.00 37.00 L 1442.00 37.00 L 1449.00 44.00 L 1449.00 45.00 L 1451.00 47.00 L 1451.00 48.00 L 1453.00 50.00 L 1453.00 52.00 L 1454.00 53.00 L 1454.00 54.00 L 1455.00 55.00 L 1455.00 57.00 L 1456.00 58.00 L 1456.00 74.00 L 1455.00 75.00 L 1455.00 78.00 L 1454.00 79.00 L 1454.00 80.00 L 1453.00 81.00 L 1453.00 82.00 L 1452.00 83.00 L 1452.00 84.00 L 1451.00 85.00 L 1451.00 86.00 L 1449.00 88.00 L 1449.00 89.00 L 1442.00 96.00 L 1441.00 96.00 L 1438.00 99.00 L 1437.00 99.00 L 1436.00 100.00 L 1435.00 100.00 L 1434.00 101.00 L 1432.00 101.00 L 1431.00 102.00 L 1429.00 102.00 L 1428.00 103.00 L 1424.00 103.00 L 1423.00 104.00 L 1413.00 104.00 L 1412.00 103.00 L 1408.00 103.00 L 1407.00 102.00 L 1405.00 102.00 L 1404.00 101.00 L 1403.00 101.00 L 1402.00 100.00 L 1400.00 100.00 L 1398.00 98.00 L 1397.00 98.00 L 1396.00 97.00 L 1395.00 97.00 L 1387.00 89.00 L 1387.00 88.00 L 1385.00 86.00 L 1385.00 85.00 L 1384.00 84.00 L 1384.00 83.00 L 1383.00 82.00 L 1383.00 81.00 L 1382.00 80.00 L 1382.00 78.00 L 1381.00 77.00 L 1381.00 73.00 L 1380.00 72.00 L 1380.00 62.00 L 1381.00 61.00 L 1381.00 58.00 L 1382.00 57.00 L 1382.00 54.00 L 1383.00 53.00 L 1383.00 52.00 L 1384.00 51.00 L 1384.00 50.00 L 1385.00 49.00 L 1385.00 48.00 L 1386.00 47.00 L 1386.00 46.00 L 1395.00 37.00 L 1396.00 37.00 L 1398.00 35.00 L 1399.00 35.00 L 1400.00 34.00 L 1401.00 34.00 L 1402.00 33.00 L 1403.00 33.00 L 1404.00 32.00 L 1406.00 32.00 L 1407.00 31.00 L 1409.00 31.00 Z" fill="#FFFFFF" fill-rule="evenodd"/>
  </g>
</svg>